<?xml version='1.0' encoding='utf-8'?>
<svg xmlns="http://www.w3.org/2000/svg" width="1920" height="1080" viewBox="0 0 1920 1080" data-theme="light">
  <style>
        @font-face {
            font-family: 'Inter';
            src: url('assets/fonts/Inter-Regular.ttf') format('truetype');
            font-weight: 400;
            font-style: normal;
            font-display: swap;
        }
        @font-face {
            font-family: 'Inter';
            src: url('assets/fonts/Inter-Bold.ttf') format('truetype');
            font-weight: 600;
            font-style: normal;
            font-display: swap;
        }
        @font-face {
            font-family: 'Inter';
            src: url('assets/fonts/Inter-Bold.ttf') format('truetype');
            font-weight: 800;
            font-style: normal;
            font-display: swap;
        }
        
:root {
    --background: #f8fafc;
    --panel: #ffffff;
    --primary-text: #0f172a;
    --muted-text: #64748b;
    --inverse-text: #ffffff;
    --border: #e2e8f0;
    --shadow-color: #000000;
    --icon-pad-bg: #1e293b;
    --art-glow: #0891b2;
    --art-glow-opacity: 0.10;
    --art-sheen: #ffffff;
    --art-sheen-opacity: 0.34;
    --art-shadow: #0f172a;
    --art-shadow-opacity: 0.14;
    --art-muted-line: #94a3b8;
    --art-panel-tint: #f1f5f9;
    --font-family: 'Inter', 'Segoe UI', 'Kalam', Roboto, Helvetica, Arial, sans-serif;
    --radius-xl: 16px;
    --font-family-headline: 'Inter', 'Segoe UI', 'Kalam', Roboto, Helvetica, Arial, sans-serif;
    --font-family-body: 'Inter', 'Segoe UI', 'Kalam', Roboto, Helvetica, Arial, sans-serif;
    --font-heading: 'Inter', 'Segoe UI', 'Kalam', Roboto, Helvetica, Arial, sans-serif;
    --font-body: 'Inter', 'Segoe UI', 'Kalam', Roboto, Helvetica, Arial, sans-serif;
    --font-size-h1: 56px;
    --font-size-h2: 40px;
    --font-size-h3: 28px;
    --font-size-body: 24px;
    --font-size-caption: 18px;
    --secondary-text: var(--muted-text);
    --panel-border: var(--border);
    --font-weight-normal: 400;
    --font-weight-medium: 500;
    --font-weight-semibold: 600;
    --font-weight-bold: 700;
    --spacing-gutter-pct: 0.07;
    --spacing-top-pct: 0.15;
    --spacing-bottom-pct: 0.07;
    --spacing-title-y-pct: 0.055;
    --accent-1: #3b82f6;
    --accent-2: #22c55e;
    --accent-3: #f59e0b;
    --accent-4: #ec4899;
    --accent-5: #8b5cf6;
    --accent-6: #06b6d4;
}
:root[data-theme="dark"] {
    --background: #0f172a;
    --panel: #1e293b;
    --primary-text: #f1f5f9;
    --muted-text: #94a3b8;
    --inverse-text: #0f172a;
    --border: #334155;
    --shadow-color: #000000;
    --icon-pad-bg: #1e293b;
    --art-glow: #7dd3fc;
    --art-glow-opacity: 0.18;
    --art-sheen: #ffffff;
    --art-sheen-opacity: 0.18;
    --art-shadow: #000000;
    --art-shadow-opacity: 0.28;
    --art-muted-line: #64748b;
    --art-panel-tint: #1e293b;
    --accent-1: #93c5fd;
    --accent-2: #86efac;
    --accent-3: #fcd34d;
    --accent-4: #f9a8d4;
    --accent-5: #c4b5fd;
    --accent-6: #a5f3fc;
}
:root[data-theme="light"] {
    --background: #f8fafc;
    --panel: #ffffff;
    --primary-text: #0f172a;
    --muted-text: #64748b;
    --inverse-text: #ffffff;
    --border: #e2e8f0;
    --shadow-color: #000000;
    --icon-pad-bg: #1e293b;
    --art-glow: #0891b2;
    --art-glow-opacity: 0.10;
    --art-sheen: #ffffff;
    --art-sheen-opacity: 0.34;
    --art-shadow: #0f172a;
    --art-shadow-opacity: 0.14;
    --art-muted-line: #94a3b8;
    --art-panel-tint: #f1f5f9;
    --accent-1: #3b82f6;
    --accent-2: #22c55e;
    --accent-3: #f59e0b;
    --accent-4: #ec4899;
    --accent-5: #8b5cf6;
    --accent-6: #06b6d4;
}</style>
  <rect x="0" y="0" width="1.92E+3" height="1.08E+3" fill="#252a34" stroke="none" id="programmatic_background"/>
  <line id="HEADER_DECOR" x1="960.0" x2="1080.0" y1="85.0" y2="85.0" stroke="var(--accent-1)" stroke-width="6" stroke-linecap="round"/>
  <defs>
    <pattern id="svg098d57c2-napkin-hatch" patternUnits="userSpaceOnUse" width="12" height="12">
      <path d="M -3 12 L 12 -3 M 0 15 L 15 0" fill="none" stroke="var(--primary-text)" stroke-width="1" stroke-opacity="0.05"/>
    </pattern>
    <filter id="svg098d57c2-shadow" x="-30%" y="-30%" width="160%" height="160%">
      <feDropShadow dx="0" dy="2" stdDeviation="3" flood-color="#000000" flood-opacity="0.08"/>
      <feDropShadow dx="0" dy="6" stdDeviation="10" flood-color="#000000" flood-opacity="0.12"/>
    </filter>
    <marker id="svg098d57c2-arrowhead" markerWidth="10" markerHeight="10" refX="9" refY="5" orient="auto">
      <path d="M 0 0 L 10 5 L 0 10 Z" fill="var(--accent-1)"/>
    </marker>
    <filter id="svg098d57c2-text-glow" x="-20%" y="-20%" width="140%" height="140%">
      <feDropShadow dx="0" dy="0" stdDeviation="2" flood-color="#000000" flood-opacity="0.4"/>
    </filter>
    <linearGradient id="svg098d57c2-beam-grad" x1="0%" y1="0%" x2="100%" y2="0%">
      <stop offset="0%" stop-color="var(--accent-3)" stop-opacity="0.6"/>
      <stop offset="100%" stop-color="var(--accent-3)" stop-opacity="0"/>
    </linearGradient>
    <linearGradient id="svg098d57c2-lantern-grad" x1="0%" y1="0%" x2="0%" y2="100%">
      <stop offset="0%" stop-color="var(--accent-3)"/>
      <stop offset="100%" stop-color="var(--accent-3)"/>
    </linearGradient>
    <linearGradient id="svg098d57c2-level-grad-5" x1="0%" y1="0%" x2="0%" y2="100%">
      <stop offset="0%" stop-color="var(--accent-7)"/>
      <stop offset="100%" stop-color="var(--accent-7)"/>
    </linearGradient>
    <linearGradient id="svg098d57c2-level-grad-4" x1="0%" y1="0%" x2="0%" y2="100%">
      <stop offset="0%" stop-color="var(--accent-1)"/>
      <stop offset="100%" stop-color="var(--accent-1)"/>
    </linearGradient>
    <linearGradient id="svg098d57c2-level-grad-3" x1="0%" y1="0%" x2="0%" y2="100%">
      <stop offset="0%" stop-color="var(--accent-4)"/>
      <stop offset="100%" stop-color="var(--accent-4)"/>
    </linearGradient>
    <linearGradient id="svg098d57c2-level-grad-2" x1="0%" y1="0%" x2="0%" y2="100%">
      <stop offset="0%" stop-color="var(--accent-2)"/>
      <stop offset="100%" stop-color="var(--accent-2)"/>
    </linearGradient>
    <linearGradient id="svg098d57c2-level-grad-1" x1="0%" y1="0%" x2="0%" y2="100%">
      <stop offset="0%" stop-color="var(--accent-6)"/>
      <stop offset="100%" stop-color="var(--accent-6)"/>
    </linearGradient>
    <radialGradient id="svg098d57c2-universal-edge-vignette" cx="50%" cy="50%" r="72%">
      <stop offset="0%" stop-color="var(--background)" stop-opacity="0"/>
      <stop offset="72%" stop-color="var(--background)" stop-opacity="0.12"/>
      <stop offset="100%" stop-color="var(--primary-text)" stop-opacity="0.08"/>
    </radialGradient>
    <linearGradient id="svg098d57c2-universal-surface-sheen" x1="0%" y1="0%" x2="100%" y2="100%">
      <stop offset="0%" stop-color="var(--art-sheen)" stop-opacity="var(--art-sheen-opacity)"/>
      <stop offset="46%" stop-color="var(--art-sheen)" stop-opacity="0.035"/>
      <stop offset="100%" stop-color="var(--art-panel-tint)" stop-opacity="0.14"/>
    </linearGradient>
    <radialGradient id="svg098d57c2-universal-icon-aura" cx="50%" cy="42%" r="64%">
      <stop offset="0%" stop-color="var(--art-glow)" stop-opacity="var(--art-glow-opacity)"/>
      <stop offset="100%" stop-color="var(--background)" stop-opacity="0"/>
    </radialGradient>
  </defs>
  <rect width="100%" height="100%" fill="var(--background)" id="CANVAS_BG"/>
  <rect width="100%" height="100%" fill="url(#svg098d57c2-napkin-hatch)"/>
  <rect id="UNIVERSAL_EDGE_VIGNETTE" width="100%" height="100%" fill="url(#svg098d57c2-universal-edge-vignette)" opacity="0.62"/>
  <text id="TITLE" x="960.0" y="59" font-size="56" font-weight="700" fill="#0f172a" text-anchor="middle" style="font-size: 60px; font-family: Inter, Segoe UI, Kalam, Roboto, Helvetica, Arial, sans-serif; font-weight: 700; letter-spacing:-1.2px;" data-final-font-size="60">
    <tspan x="960.0" dy="68.00px">C-54 Gander Sighting Optical Mechanics</tspan>
  </text>
  <rect id="TITLE_FRAME" x="134" y="25" width="1652" height="70" fill="none"/>
  <g id="DIAGRAM_MAIN" transform="translate(0, 100)">
    <rect x="880.0" y="120" width="160" height="80" fill="url(#svg098d57c2-lantern-grad)" filter="url(#svg098d57c2-shadow)" stroke="var(--primary-text)" stroke-width="2"/>
    <path d="M 860.0 120 Q 960 60 1060.0 120 Z" fill="var(--primary-text)"/>
    <path d="M 1040.0 160 L 1720 20 L 1720 320 Z" fill="url(#svg098d57c2-beam-grad)" opacity="0.24"/>
    <path d="M 1040 160 L 1718 92" stroke="var(--inverse-text)" stroke-width="2" stroke-opacity="0.12"/>
    <path d="M 1040 160 L 1718 250" stroke="var(--inverse-text)" stroke-width="2" stroke-opacity="0.08"/>
    <path d="M 1040 160 L 1718 92" stroke="var(--inverse-text)" stroke-width="2" stroke-opacity="0.12"/>
    <path d="M 1040 160 L 1718 250" stroke="var(--inverse-text)" stroke-width="2" stroke-opacity="0.08"/>
    <path d="M 1040 160 L 1718 92" stroke="var(--inverse-text)" stroke-width="2" stroke-opacity="0.12"/>
    <path d="M 1040 160 L 1718 250" stroke="var(--inverse-text)" stroke-width="2" stroke-opacity="0.08"/>
    <path d="M 1040 160 L 1718 92" stroke="var(--inverse-text)" stroke-width="2" stroke-opacity="0.12"/>
    <path d="M 1040 160 L 1718 250" stroke="var(--inverse-text)" stroke-width="2" stroke-opacity="0.08"/>
    <path d="M 1040 160 L 1718 92" stroke="var(--inverse-text)" stroke-width="2" stroke-opacity="0.12"/>
    <path d="M 1040 160 L 1718 250" stroke="var(--inverse-text)" stroke-width="2" stroke-opacity="0.08"/>
    <path d="M 1040 160 L 1718 92" stroke="var(--inverse-text)" stroke-width="2" stroke-opacity="0.12"/>
    <path d="M 1040 160 L 1718 250" stroke="var(--inverse-text)" stroke-width="2" stroke-opacity="0.08"/>
    <path d="M 1040 160 L 1718 92" stroke="var(--inverse-text)" stroke-width="2" stroke-opacity="0.12"/>
    <path d="M 1040 160 L 1718 250" stroke="var(--inverse-text)" stroke-width="2" stroke-opacity="0.08"/>
    <path d="M 1040 160 L 1718 92" stroke="var(--inverse-text)" stroke-width="2" stroke-opacity="0.12"/>
    <path d="M 1040 160 L 1718 250" stroke="var(--inverse-text)" stroke-width="2" stroke-opacity="0.08"/>
    <path d="M 1040 160 L 1718 92" stroke="var(--inverse-text)" stroke-width="2" stroke-opacity="0.12"/>
    <path d="M 1040 160 L 1718 250" stroke="var(--inverse-text)" stroke-width="2" stroke-opacity="0.08"/>
    <path d="M 1040 160 L 1718 92" stroke="var(--inverse-text)" stroke-width="2" stroke-opacity="0.12"/>
    <path d="M 1040 160 L 1718 250" stroke="var(--inverse-text)" stroke-width="2" stroke-opacity="0.08"/>
    <path d="M 1040 160 L 1718 92" stroke="var(--inverse-text)" stroke-width="2" stroke-opacity="0.12"/>
    <path d="M 1040 160 L 1718 250" stroke="var(--inverse-text)" stroke-width="2" stroke-opacity="0.08"/>
    <path d="M 1040 160 L 1718 92" stroke="var(--inverse-text)" stroke-width="2" stroke-opacity="0.12"/>
    <path d="M 1040 160 L 1718 250" stroke="var(--inverse-text)" stroke-width="2" stroke-opacity="0.08"/>
    <path d="M 1040 160 L 1718 92" stroke="var(--inverse-text)" stroke-width="2" stroke-opacity="0.12"/>
    <path d="M 1040 160 L 1718 250" stroke="var(--inverse-text)" stroke-width="2" stroke-opacity="0.08"/>
    <path d="M 1040 160 L 1718 92" stroke="var(--inverse-text)" stroke-width="2" stroke-opacity="0.12"/>
    <path d="M 1040 160 L 1718 250" stroke="var(--inverse-text)" stroke-width="2" stroke-opacity="0.08"/>
    <path d="M 1040 160 L 1718 92" stroke="var(--inverse-text)" stroke-width="2" stroke-opacity="0.12"/>
    <path d="M 1040 160 L 1718 250" stroke="var(--inverse-text)" stroke-width="2" stroke-opacity="0.08"/>
    <path d="M 1040 160 L 1718 92" stroke="var(--inverse-text)" stroke-width="2" stroke-opacity="0.12"/>
    <path d="M 1040 160 L 1718 250" stroke="var(--inverse-text)" stroke-width="2" stroke-opacity="0.08"/>
    <path d="M 1040 160 L 1718 92" stroke="var(--inverse-text)" stroke-width="2" stroke-opacity="0.12"/>
    <path d="M 1040 160 L 1718 250" stroke="var(--inverse-text)" stroke-width="2" stroke-opacity="0.08"/>
    <path d="M 1040 160 L 1718 92" stroke="var(--inverse-text)" stroke-width="2" stroke-opacity="0.12"/>
    <path d="M 1040 160 L 1718 250" stroke="var(--inverse-text)" stroke-width="2" stroke-opacity="0.08"/>
    <path d="M 1040 160 L 1718 92" stroke="var(--inverse-text)" stroke-width="2" stroke-opacity="0.12"/>
    <path d="M 1040 160 L 1718 250" stroke="var(--inverse-text)" stroke-width="2" stroke-opacity="0.08"/>
    <path d="M 1040 160 L 1718 92" stroke="var(--inverse-text)" stroke-width="2" stroke-opacity="0.12"/>
    <path d="M 1040 160 L 1718 250" stroke="var(--inverse-text)" stroke-width="2" stroke-opacity="0.08"/>
    <path d="M 1040 160 L 1718 92" stroke="var(--inverse-text)" stroke-width="2" stroke-opacity="0.12"/>
    <path d="M 1040 160 L 1718 250" stroke="var(--inverse-text)" stroke-width="2" stroke-opacity="0.08"/>
    <path d="M 1040 160 L 1718 92" stroke="var(--inverse-text)" stroke-width="2" stroke-opacity="0.12"/>
    <path d="M 1040 160 L 1718 250" stroke="var(--inverse-text)" stroke-width="2" stroke-opacity="0.08"/>
    <path d="M 1040 160 L 1718 92" stroke="var(--inverse-text)" stroke-width="2" stroke-opacity="0.12"/>
    <path d="M 1040 160 L 1718 250" stroke="var(--inverse-text)" stroke-width="2" stroke-opacity="0.08"/>
    <path d="M 1040 160 L 1718 92" stroke="var(--inverse-text)" stroke-width="2" stroke-opacity="0.12"/>
    <path d="M 1040 160 L 1718 250" stroke="var(--inverse-text)" stroke-width="2" stroke-opacity="0.08"/>
    <path d="M 1040 160 L 1718 92" stroke="var(--inverse-text)" stroke-width="2" stroke-opacity="0.12"/>
    <path d="M 1040 160 L 1718 250" stroke="var(--inverse-text)" stroke-width="2" stroke-opacity="0.08"/>
    <path d="M 1040 160 L 1718 92" stroke="var(--inverse-text)" stroke-width="2" stroke-opacity="0.12"/>
    <path d="M 1040 160 L 1718 250" stroke="var(--inverse-text)" stroke-width="2" stroke-opacity="0.08"/>
    <path d="M 1040 160 L 1718 92" stroke="var(--inverse-text)" stroke-width="2" stroke-opacity="0.12"/>
    <path d="M 1040 160 L 1718 250" stroke="var(--inverse-text)" stroke-width="2" stroke-opacity="0.08"/>
    <path d="M 1040 160 L 1718 92" stroke="var(--inverse-text)" stroke-width="2" stroke-opacity="0.12"/>
    <path d="M 1040 160 L 1718 250" stroke="var(--inverse-text)" stroke-width="2" stroke-opacity="0.08"/>
    <path d="M 1040 160 L 1718 92" stroke="var(--inverse-text)" stroke-width="2" stroke-opacity="0.12"/>
    <path d="M 1040 160 L 1718 250" stroke="var(--inverse-text)" stroke-width="2" stroke-opacity="0.08"/>
    <path id="ITEM_5_BG" d="M 870.0 200.0 L 1050.0 200.0 L 1062.0 322.0 L 858.0 322.0 Z" fill="var(--accent-3)" filter="url(#svg098d57c2-shadow)" stroke="var(--background)" stroke-width="2" fill-opacity="1.0"/>
    <path d="M 870 200 L 1050 200 L 1110 810 L 810 810 Z" fill="url(#svg098d57c2-universal-surface-sheen)" opacity="0.06"/>
    <path d="M 870 200 L 1050 200 L 1110 810 L 810 810 Z" fill="url(#svg098d57c2-universal-surface-sheen)" opacity="0.06"/>
    <path d="M 870 200 L 1050 200 L 1110 810 L 810 810 Z" fill="url(#svg098d57c2-universal-surface-sheen)" opacity="0.06"/>
    <path d="M 870 200 L 1050 200 L 1110 810 L 810 810 Z" fill="url(#svg098d57c2-universal-surface-sheen)" opacity="0.06"/>
    <path d="M 870 200 L 1050 200 L 1110 810 L 810 810 Z" fill="url(#svg098d57c2-universal-surface-sheen)" opacity="0.06"/>
    <path d="M 870 200 L 1050 200 L 1110 810 L 810 810 Z" fill="url(#svg098d57c2-universal-surface-sheen)" opacity="0.06"/>
    <path d="M 870 200 L 1050 200 L 1110 810 L 810 810 Z" fill="url(#svg098d57c2-universal-surface-sheen)" opacity="0.06"/>
    <path d="M 870 200 L 1050 200 L 1110 810 L 810 810 Z" fill="url(#svg098d57c2-universal-surface-sheen)" opacity="0.06"/>
    <path d="M 870 200 L 1050 200 L 1110 810 L 810 810 Z" fill="url(#svg098d57c2-universal-surface-sheen)" opacity="0.06"/>
    <path d="M 870 200 L 1050 200 L 1110 810 L 810 810 Z" fill="url(#svg098d57c2-universal-surface-sheen)" opacity="0.06"/>
    <path d="M 870 200 L 1050 200 L 1110 810 L 810 810 Z" fill="url(#svg098d57c2-universal-surface-sheen)" opacity="0.06"/>
    <path d="M 870 200 L 1050 200 L 1110 810 L 810 810 Z" fill="url(#svg098d57c2-universal-surface-sheen)" opacity="0.06"/>
    <path d="M 870 200 L 1050 200 L 1110 810 L 810 810 Z" fill="url(#svg098d57c2-universal-surface-sheen)" opacity="0.06"/>
    <path d="M 870 200 L 1050 200 L 1110 810 L 810 810 Z" fill="url(#svg098d57c2-universal-surface-sheen)" opacity="0.06"/>
    <path d="M 870 200 L 1050 200 L 1110 810 L 810 810 Z" fill="url(#svg098d57c2-universal-surface-sheen)" opacity="0.06"/>
    <path d="M 870 200 L 1050 200 L 1110 810 L 810 810 Z" fill="url(#svg098d57c2-universal-surface-sheen)" opacity="0.06"/>
    <path d="M 870 200 L 1050 200 L 1110 810 L 810 810 Z" fill="url(#svg098d57c2-universal-surface-sheen)" opacity="0.06"/>
    <path d="M 870 200 L 1050 200 L 1110 810 L 810 810 Z" fill="url(#svg098d57c2-universal-surface-sheen)" opacity="0.06"/>
    <path d="M 870 200 L 1050 200 L 1110 810 L 810 810 Z" fill="url(#svg098d57c2-universal-surface-sheen)" opacity="0.06"/>
    <path d="M 870 200 L 1050 200 L 1110 810 L 810 810 Z" fill="url(#svg098d57c2-universal-surface-sheen)" opacity="0.06"/>
    <path d="M 870 200 L 1050 200 L 1110 810 L 810 810 Z" fill="url(#svg098d57c2-universal-surface-sheen)" opacity="0.06"/>
    <path d="M 870 200 L 1050 200 L 1110 810 L 810 810 Z" fill="url(#svg098d57c2-universal-surface-sheen)" opacity="0.06"/>
    <path d="M 870 200 L 1050 200 L 1110 810 L 810 810 Z" fill="url(#svg098d57c2-universal-surface-sheen)" opacity="0.06"/>
    <path d="M 870 200 L 1050 200 L 1110 810 L 810 810 Z" fill="url(#svg098d57c2-universal-surface-sheen)" opacity="0.06"/>
    <path d="M 870 200 L 1050 200 L 1110 810 L 810 810 Z" fill="url(#svg098d57c2-universal-surface-sheen)" opacity="0.06"/>
    <path d="M 870 200 L 1050 200 L 1110 810 L 810 810 Z" fill="url(#svg098d57c2-universal-surface-sheen)" opacity="0.06"/>
    <path d="M 870 200 L 1050 200 L 1110 810 L 810 810 Z" fill="url(#svg098d57c2-universal-surface-sheen)" opacity="0.06"/>
    <path d="M 870 200 L 1050 200 L 1110 810 L 810 810 Z" fill="url(#svg098d57c2-universal-surface-sheen)" opacity="0.06"/>
    <path d="M 870 200 L 1050 200 L 1110 810 L 810 810 Z" fill="url(#svg098d57c2-universal-surface-sheen)" opacity="0.06"/>
    <line x1="890.0" y1="210.0" x2="878.0" y2="312.0" stroke="var(--background)" stroke-width="3" stroke-opacity="0.3"/>
    <circle cx="960" cy="261.0" r="43" fill="var(--icon-pad-bg)" stroke="none"/>
    <circle id="ITEM_5_RING" cx="960" cy="261.0" r="36" fill="none" stroke="var(--accent-2)" stroke-width="3" filter="url(#svg098d57c2-shadow)" stroke-dasharray="6 4"/>
    <circle id="ITEM_5_PAD" cx="960.00" cy="261.00" r="44.80" fill="var(--icon-pad-bg)" stroke="var(--primary-text)" stroke-width="2" opacity="0.9"/>
    <circle id="ITEM_5_PAD_INNER" cx="960.00" cy="261.00" r="34.94" fill="var(--accent-3)" fill-opacity="0.22"/>
    <g id="ITEM_5_ICON" transform="translate(932.0, 233.0)" data-icon-size="56">
      <g transform="translate(-9.905355932203385,-9.905355932203385) scale(3.1587796610169487)" vector-effect="non-scaling-stroke" stroke-width="2.38" stroke-linecap="round" stroke-linejoin="round" stroke-opacity="1.0">
        <path d="m2 2 20 20" vector-effect="non-scaling-stroke" fill="none" stroke="#f1f5f9"/>
        <path d="M8.35 2.69A10 10 0 0 1 21.3 15.65" vector-effect="non-scaling-stroke" fill="none" stroke="#f1f5f9"/>
        <path d="M19.08 19.08A10 10 0 1 1 4.92 4.92" vector-effect="non-scaling-stroke" fill="none" stroke="#f1f5f9"/>
      </g>
    </g>
    <line id="ITEM_5_LINE" x1="1056.0" y1="261.0" x2="1136.0" y2="261.0" stroke="var(--accent-3)" stroke-width="3" stroke-dasharray="6 4" stroke-opacity="1.0"/>
    <circle id="ITEM_5_DOT" cx="1136.0" cy="261.0" r="5" fill="var(--accent-3)" fill-opacity="1.0"/>
    <rect id="ITEM_5_LABEL_BG" x="1146.0" y="205.0" width="420.0" height="207.0" rx="18" fill="var(--panel)" fill-opacity="0.88" stroke="var(--accent-5)" stroke-opacity="0.32" stroke-width="1.5"/>
    <text id="ITEM_5_HEAD" x="1166.0" y="221.0" font-weight="bold" font-size="34" fill="var(--primary-text)" text-anchor="start" data-bg-id="ITEM_5_LABEL_BG" fill-opacity="1.0" style="font-size: 23px; font-family: Inter, Segoe UI, Kalam, Roboto, Helvetica, Arial, sans-serif; font-weight: 700; letter-spacing:-0.4px;" data-final-font-size="23">
      <tspan x="1166.0" dy="30.18px">Distance Perception</tspan>
    </text>
    <rect id="ITEM_5_HEAD_FRAME" x="1166.0" y="221.0" width="220" height="50" fill="none"/>
    <text id="ITEM_5_BODY" x="1166.0" y="276.0" font-size="20" fill="var(--primary-text)" text-anchor="start" data-bg-id="ITEM_5_LABEL_BG" style="font-size: 26px; font-family: Inter, Segoe UI, Kalam, Roboto, Helvetica, Arial, sans-serif; font-weight: 400;" data-final-font-size="26">
      <tspan x="1166.0" dy="26.86px">Lack of reference points</tspan>
      <tspan x="1166.0" dy="29.90px">creates false motion</tspan>
      <tspan x="1166.0" dy="29.90px">impressions</tspan>
    </text>
    <rect id="ITEM_5_BODY_FRAME" x="1166" y="276.0" width="380" height="120" fill="none"/>
    <path id="ITEM_4_BG" d="M 858.0 322.0 L 1062.0 322.0 L 1074.0 444.0 L 846.0 444.0 Z" fill="var(--accent-2)" filter="url(#svg098d57c2-shadow)" stroke="var(--background)" stroke-width="2" fill-opacity="1.0"/>
    <line x1="878.0" y1="332.0" x2="866.0" y2="434.0" stroke="var(--background)" stroke-width="3" stroke-opacity="0.3"/>
    <circle cx="960" cy="383.0" r="43" fill="var(--icon-pad-bg)" stroke="none"/>
    <circle id="ITEM_4_RING" cx="960" cy="383.0" r="36" fill="none" stroke="var(--accent-1)" stroke-width="3" filter="url(#svg098d57c2-shadow)" stroke-dasharray="6 4"/>
    <circle id="ITEM_4_PAD" cx="960.00" cy="383.00" r="44.80" fill="var(--icon-pad-bg)" stroke="var(--primary-text)" stroke-width="2" opacity="0.9"/>
    <circle id="ITEM_4_PAD_INNER" cx="960.00" cy="383.00" r="34.94" fill="var(--accent-2)" fill-opacity="0.22"/>
    <g id="ITEM_4_ICON" transform="translate(932.0, 355.0)" data-icon-size="56">
      <g transform="translate(-11.582584070796457,-13.128778761061941) scale(3.2985486725663713)" vector-effect="non-scaling-stroke" stroke-width="2.38" stroke-linecap="round" stroke-linejoin="round" stroke-opacity="1.0">
        <path d="M12 9v13" vector-effect="non-scaling-stroke" fill="none" stroke="#f1f5f9"/>
        <path d="M19 17.17l-5.98 4.485a1.7 1.7 0 0 1 -2.04 0l-5.98 -4.485a2.5 2.5 0 0 1 -1 -2v-11.17a1 1 0 0 1 1 -1h14a1 1 0 0 1 1 1v11.17a2.5 2.5 0 0 1 -1 2z" vector-effect="non-scaling-stroke" fill="none" stroke="#f1f5f9"/>
        <path d="M4.3 3.3l6.655 5.186a1.7 1.7 0 0 0 2.09 0l6.655 -5.186" vector-effect="non-scaling-stroke" fill="none" stroke="#f1f5f9"/>
      </g>
    </g>
    <line id="ITEM_4_LINE" x1="852.0" y1="383.0" x2="772.0" y2="383.0" stroke="var(--accent-2)" stroke-width="3" stroke-dasharray="6 4" stroke-opacity="1.0"/>
    <circle id="ITEM_4_DOT" cx="772.0" cy="383.0" r="5" fill="var(--accent-2)" fill-opacity="1.0"/>
    <rect id="ITEM_4_LABEL_BG" x="342.0" y="327.0" width="420.0" height="207.0" rx="18" fill="var(--panel)" fill-opacity="0.88" stroke="var(--accent-4)" stroke-opacity="0.32" stroke-width="1.5"/>
    <text id="ITEM_4_HEAD" x="742.0" y="343.0" font-weight="bold" font-size="34" fill="var(--primary-text)" text-anchor="end" data-bg-id="ITEM_4_LABEL_BG" fill-opacity="1.0" style="font-size: 30px; font-family: Inter, Segoe UI, Kalam, Roboto, Helvetica, Arial, sans-serif; font-weight: 700; letter-spacing:-0.4px;" data-final-font-size="30">
      <tspan x="742.0" dy="33.25px">Color Shifting</tspan>
    </text>
    <rect id="ITEM_4_HEAD_FRAME" x="522.0" y="343.0" width="220" height="50" fill="none"/>
    <text id="ITEM_4_BODY" x="742.0" y="398.0" font-size="20" fill="var(--primary-text)" text-anchor="end" data-bg-id="ITEM_4_LABEL_BG" style="font-size: 26px; font-family: Inter, Segoe UI, Kalam, Roboto, Helvetica, Arial, sans-serif; font-weight: 400;" data-final-font-size="26">
      <tspan x="742.0" dy="32.84px">Atmospheric thickness produces</tspan>
      <tspan x="742.0" dy="29.90px">orange or yellow hues</tspan>
    </text>
    <rect id="ITEM_4_BODY_FRAME" x="362" y="398.0" width="380" height="120" fill="none"/>
    <path id="ITEM_3_BG" d="M 846.0 444.0 L 1074.0 444.0 L 1086.0 566.0 L 834.0 566.0 Z" fill="var(--accent-1)" filter="url(#svg098d57c2-shadow)" stroke="var(--background)" stroke-width="2" fill-opacity="1.0"/>
    <line x1="866.0" y1="454.0" x2="854.0" y2="556.0" stroke="var(--background)" stroke-width="3" stroke-opacity="0.3"/>
    <circle cx="960" cy="505.0" r="43" fill="var(--icon-pad-bg)" stroke="none"/>
    <circle id="ITEM_3_RING" cx="960" cy="505.0" r="36" fill="none" stroke="var(--accent-5)" stroke-width="3" filter="url(#svg098d57c2-shadow)" stroke-dasharray="6 4"/>
    <circle id="ITEM_3_PAD" cx="960.00" cy="505.00" r="44.80" fill="var(--icon-pad-bg)" stroke="var(--primary-text)" stroke-width="2" opacity="0.9"/>
    <circle id="ITEM_3_PAD_INNER" cx="960.00" cy="505.00" r="34.94" fill="var(--accent-1)" fill-opacity="0.22"/>
    <g id="ITEM_3_ICON" transform="translate(932.0, 477.0)" data-icon-size="56">
      <g transform="translate(-11.935999999999993,-11.935999999999995) scale(1.9967999999999997)">
        <path d="m4.287,26.677l.01-13.377c.001-1.473.788-2.834,2.064-3.569l11.59-6.68c1.276-.736,2.848-.734,4.123.003l11.58,6.697c1.275.737,2.06,2.099,2.059,3.572l-.01,13.377c-.001,1.473-.788,2.834-2.064,3.569l-11.59,6.68c-1.276.736-2.848.734-4.123-.003l-11.58-6.697c-1.275-.737-2.06-2.099-2.059-3.572Z" fill="#e5e9ee"/>
        <path d="m35.713,13.323c0-.276-.036-.546-.089-.81-.246-.62-1.003-.94-1.637-.574l-12.659,7.296c-.822.474-1.329,1.35-1.33,2.3l-.012,15.966c.712,0,1.424-.183,2.062-.551l5.795-3.34,5.795-3.34c1.276-.735,2.063-2.096,2.064-3.569l.01-13.378Z" fill="#abb7c7"/>
        <path d="m19.987,37.5l.012-15.824c0-1.037-.552-1.996-1.45-2.515l-12.506-7.233c-.646-.374-1.42-.042-1.662.596-.049.254-.083.512-.083.776l-.004,5.838-.006,7.539c0,1.473.784,2.834,2.059,3.572l5.79,3.349,5.79,3.349c.637.369,1.349.553,2.061.554Z" fill="#d0d6de"/>
      </g>
    </g>
    <line id="ITEM_3_LINE" x1="1080.0" y1="505.0" x2="1160.0" y2="505.0" stroke="var(--accent-1)" stroke-width="3" stroke-dasharray="6 4" stroke-opacity="1.0"/>
    <circle id="ITEM_3_DOT" cx="1160.0" cy="505.0" r="5" fill="var(--accent-1)" fill-opacity="1.0"/>
    <rect id="ITEM_3_LABEL_BG" x="1170.0" y="449.0" width="420.0" height="207.0" rx="18" fill="var(--panel)" fill-opacity="0.88" stroke="var(--accent-3)" stroke-opacity="0.32" stroke-width="1.5"/>
    <text id="ITEM_3_HEAD" x="1190.0" y="465.0" font-weight="bold" font-size="34" fill="var(--primary-text)" text-anchor="start" data-bg-id="ITEM_3_LABEL_BG" fill-opacity="1.0" style="font-size: 21px; font-family: Inter, Segoe UI, Kalam, Roboto, Helvetica, Arial, sans-serif; font-weight: 700; letter-spacing:-0.4px;" data-final-font-size="21">
      <tspan x="1190.0" dy="17.65px">Atmospheric</tspan>
      <tspan x="1190.0" dy="24.15px">Refraction</tspan>
    </text>
    <rect id="ITEM_3_HEAD_FRAME" x="1190.0" y="465.0" width="220" height="50" fill="none"/>
    <text id="ITEM_3_BODY" x="1190.0" y="520.0" font-size="20" fill="var(--primary-text)" text-anchor="start" data-bg-id="ITEM_3_LABEL_BG" style="font-size: 26px; font-family: Inter, Segoe UI, Kalam, Roboto, Helvetica, Arial, sans-serif; font-weight: 400;" data-final-font-size="26">
      <tspan x="1190.0" dy="32.84px">Ice crystals and haze distort</tspan>
      <tspan x="1190.0" dy="29.90px">the light's true position</tspan>
    </text>
    <rect id="ITEM_3_BODY_FRAME" x="1190" y="520.0" width="380" height="120" fill="none"/>
    <path id="ITEM_2_BG" d="M 834.0 566.0 L 1086.0 566.0 L 1098.0 688.0 L 822.0 688.0 Z" fill="var(--accent-6)" filter="url(#svg098d57c2-shadow)" stroke="var(--background)" stroke-width="2" fill-opacity="1.0"/>
    <line x1="854.0" y1="576.0" x2="842.0" y2="678.0" stroke="var(--background)" stroke-width="3" stroke-opacity="0.3"/>
    <circle cx="960" cy="627.0" r="43" fill="var(--icon-pad-bg)" stroke="none"/>
    <circle id="ITEM_2_RING" cx="960" cy="627.0" r="36" fill="none" stroke="var(--accent-4)" stroke-width="3" filter="url(#svg098d57c2-shadow)" stroke-dasharray="6 4"/>
    <circle id="ITEM_2_PAD" cx="960.00" cy="627.00" r="44.80" fill="var(--icon-pad-bg)" stroke="var(--primary-text)" stroke-width="2" opacity="0.9"/>
    <circle id="ITEM_2_PAD_INNER" cx="960.00" cy="627.00" r="34.94" fill="var(--accent-6)" fill-opacity="0.22"/>
    <g id="ITEM_2_ICON" transform="translate(932.0, 599.0)" data-icon-size="56">
      <g transform="translate(-9.273599999999995,-9.273599999999995) scale(2.3295999999999997)">
        <path d="M27.938 8.83821C24.0423 5.04133 17.8344 5.05797 13.9753 8.86406C13.4392 8.67001 12.8612 8.56433 12.26 8.56433C10.458 8.56433 8.87859 9.50994 7.98809 10.929C4.08596 11.1722 1 14.4106 1 18.3743C1 20.1277 1.61099 21.7416 2.62059 23.0183C3.99219 24.8117 6.14877 25.9643 8.58 25.9643H21.27C24.4212 25.9643 27.2042 24.4125 28.9045 22.0385C31.9165 18.083 31.5813 12.4038 27.9394 8.83964L27.938 8.83821Z" fill="#B4ACBC"/>
        <path d="M14.55 9.70434C18.01 6.15434 23.69 6.09434 27.24 9.55434C30.52 12.7643 30.82 17.8843 28.1 21.4443C26.58 23.5743 24.09 24.9643 21.27 24.9643H8.58C6.47 24.9643 4.6 23.9643 3.41 22.4043C2.53 21.2943 2 19.8943 2 18.3743C2 14.8043 4.89 11.9143 8.46 11.9143C8.50303 11.9143 8.54595 11.9148 8.58877 11.9156C9.22825 10.5277 10.6316 9.56433 12.26 9.56433C12.9685 9.56433 13.6345 9.74673 14.2134 10.0671C14.3215 9.94392 14.4337 9.82294 14.55 9.70434Z" fill="#F3EEF8"/>
      </g>
    </g>
    <line id="ITEM_2_LINE" x1="828.0" y1="627.0" x2="748.0" y2="627.0" stroke="var(--accent-6)" stroke-width="3" stroke-dasharray="6 4" stroke-opacity="1.0"/>
    <circle id="ITEM_2_DOT" cx="748.0" cy="627.0" r="5" fill="var(--accent-6)" fill-opacity="1.0"/>
    <rect id="ITEM_2_LABEL_BG" x="318.0" y="571.0" width="420.0" height="207.0" rx="18" fill="var(--panel)" fill-opacity="0.88" stroke="var(--accent-2)" stroke-opacity="0.32" stroke-width="1.5"/>
    <text id="ITEM_2_HEAD" x="718.0" y="587.0" font-weight="bold" font-size="34" fill="var(--primary-text)" text-anchor="end" data-bg-id="ITEM_2_LABEL_BG" fill-opacity="1.0" style="font-size: 26px; font-family: Inter, Segoe UI, Kalam, Roboto, Helvetica, Arial, sans-serif; font-weight: 700; letter-spacing:-0.4px;" data-final-font-size="26">
      <tspan x="718.0" dy="30.85px">Cloud Interaction</tspan>
    </text>
    <rect id="ITEM_2_HEAD_FRAME" x="498.0" y="587.0" width="220" height="50" fill="none"/>
    <text id="ITEM_2_BODY" x="718.0" y="642.0" font-size="20" fill="var(--primary-text)" text-anchor="end" data-bg-id="ITEM_2_LABEL_BG" style="font-size: 26px; font-family: Inter, Segoe UI, Kalam, Roboto, Helvetica, Arial, sans-serif; font-weight: 400;" data-final-font-size="26">
      <tspan x="718.0" dy="32.84px">Light emerges through breaks</tspan>
      <tspan x="718.0" dy="29.90px">in thin cloud layers</tspan>
    </text>
    <rect id="ITEM_2_BODY_FRAME" x="338" y="642.0" width="380" height="120" fill="none"/>
    <path id="ITEM_1_BG" d="M 822.0 688.0 L 1098.0 688.0 L 1110.0 810.0 L 810.0 810.0 Z" fill="var(--accent-5)" filter="url(#svg098d57c2-shadow)" stroke="var(--background)" stroke-width="2" fill-opacity="1.0"/>
    <line x1="842.0" y1="698.0" x2="830.0" y2="800.0" stroke="var(--background)" stroke-width="3" stroke-opacity="0.3"/>
    <circle cx="960" cy="749.0" r="43" fill="var(--icon-pad-bg)" stroke="none"/>
    <circle id="ITEM_1_RING" cx="960" cy="749.0" r="36" fill="none" stroke="var(--accent-6)" stroke-width="3" filter="url(#svg098d57c2-shadow)" stroke-dasharray="6 4"/>
    <circle id="ITEM_1_PAD" cx="960.00" cy="749.00" r="44.80" fill="var(--icon-pad-bg)" stroke="var(--primary-text)" stroke-width="2" opacity="0.9"/>
    <circle id="ITEM_1_PAD_INNER" cx="960.00" cy="749.00" r="34.94" fill="var(--accent-5)" fill-opacity="0.22"/>
    <g id="ITEM_1_ICON" transform="translate(932.0, 721.0)" data-icon-size="56">
      <g transform="translate(-11.935999999999995,-12.559999999999992) scale(2.4959999999999996)">
        <path d="M18.7303 8.60911V6.06653H7.03174V26.9651H26.0109V20.3841C25.4929 20.8941 24.42 21.809 22.704 22.3834C21.7762 22.6939 20.6231 22.8701 19.3753 22.9286C19.1503 22.9499 18.9223 22.9607 18.6917 22.9607C14.7286 22.9607 11.5159 19.748 11.5159 15.7849C11.5159 11.8218 14.7286 8.60901 18.6917 8.60901C18.7046 8.60901 18.7175 8.60904 18.7303 8.60911Z" fill="#26C9FC"/>
        <path d="M2.00391 15.154L2.00394 28.9922C2.00394 29.5445 2.45165 29.9922 3.00394 29.9922H28.9937C29.546 29.9922 29.9937 29.5445 29.9937 28.9922L29.9937 17.8442C27.5057 18.7649 25.9825 20.5075 24.1129 22.0289C22.3405 23.4712 20.1514 24.7191 17.0031 24.7191C12.7544 24.7191 7.80713 20.8973 7.80713 15.8858C7.80713 9.86697 12.9891 7.30096 15.8417 7.30096C16.99 7.30096 17.4804 7.54554 17.6761 7.66783L18.8867 9.31877H23.0691V8.3649C22.3965 6.46938 19.5251 2.67834 13.4203 2.67834C7.80713 2.67834 2.00391 8.3649 2.00391 15.154Z" fill="#00A6ED"/>
        <path d="M22.1939 5.86245C22.1939 6.49073 21.6846 7.00005 21.0563 7.00005C20.428 7.00005 19.9187 6.49073 19.9187 5.86245C19.9187 5.23417 20.428 4.72485 21.0563 4.72485C21.6846 4.72485 22.1939 5.23417 22.1939 5.86245Z" fill="#B4F6FC"/>
        <path d="M27.9251 10.2761C28.5534 10.2761 29.0627 9.76673 29.0627 9.13845C29.0627 8.51017 28.5534 8.00085 27.9251 8.00085C27.2968 8.00085 26.7875 8.51017 26.7875 9.13845C26.7875 9.76673 27.2968 10.2761 27.9251 10.2761Z" fill="#B4F6FC"/>
        <path d="M27.9251 16.1137C28.5534 16.1137 29.0627 15.6044 29.0627 14.9761C29.0627 14.3478 28.5534 13.8385 27.9251 13.8385C27.2968 13.8385 26.7875 14.3478 26.7875 14.9761C26.7875 15.6044 27.2968 16.1137 27.9251 16.1137Z" fill="#B4F6FC"/>
        <path d="M19.1854 14.1376C19.1854 14.7659 18.676 15.2752 18.0478 15.2752C17.4195 15.2752 16.9102 14.7659 16.9102 14.1376C16.9102 13.5093 17.4195 13 18.0478 13C18.676 13 19.1854 13.5093 19.1854 14.1376Z" fill="#B4F6FC"/>
        <path d="M25.023 13.1946C25.6513 13.1946 26.1606 12.6853 26.1606 12.057C26.1606 11.6134 25.9066 11.229 25.5361 11.0415C25.8288 10.6142 26 10.0971 26 9.54011C26 8.07111 24.8092 6.88025 23.3402 6.88025C22.4254 6.88025 21.6184 7.34206 21.1398 8.04526C20.6611 7.34206 19.8542 6.88025 18.9394 6.88025C18.1349 6.88025 17.4139 7.23738 16.9262 7.80174C16.4384 7.23738 15.7174 6.88025 14.9129 6.88025C13.4439 6.88025 12.2531 8.07111 12.2531 9.54011C12.2531 11.0091 13.4439 12.2 14.9129 12.2C15.7174 12.2 16.4384 11.8428 16.9262 11.2785C17.4139 11.8428 18.1349 12.2 18.9394 12.2C19.8542 12.2 20.6611 11.7382 21.1398 11.035C21.6184 11.7382 22.4254 12.2 23.3402 12.2C23.5282 12.2 23.7116 12.1805 23.8886 12.1434C23.9327 12.7313 24.4237 13.1946 25.023 13.1946Z" fill="#B4F6FC"/>
      </g>
    </g>
    <line id="ITEM_1_LINE" x1="1104.0" y1="749.0" x2="1184.0" y2="749.0" stroke="var(--accent-5)" stroke-width="3" stroke-dasharray="6 4" stroke-opacity="1.0"/>
    <circle id="ITEM_1_DOT" cx="1184.0" cy="749.0" r="5" fill="var(--accent-5)" fill-opacity="1.0"/>
    <rect id="ITEM_1_LABEL_BG" x="1194.0" y="693.0" width="420.0" height="207.0" rx="18" fill="var(--panel)" fill-opacity="0.88" stroke="var(--accent-1)" stroke-opacity="0.32" stroke-width="1.5"/>
    <text id="ITEM_1_HEAD" x="1214.0" y="709.0" font-weight="bold" font-size="34" fill="var(--primary-text)" text-anchor="start" data-bg-id="ITEM_1_LABEL_BG" fill-opacity="1.0" style="font-size: 28px; font-family: Inter, Segoe UI, Kalam, Roboto, Helvetica, Arial, sans-serif; font-weight: 700; letter-spacing:-0.4px;" data-final-font-size="28">
      <tspan x="1214.0" dy="31.30px">Horizon Position</tspan>
    </text>
    <rect id="ITEM_1_HEAD_FRAME" x="1214.0" y="709.0" width="220" height="50" fill="none"/>
    <text id="ITEM_1_BODY" x="1214.0" y="764.0" font-size="20" fill="var(--primary-text)" text-anchor="start" data-bg-id="ITEM_1_LABEL_BG" style="font-size: 26px; font-family: Inter, Segoe UI, Kalam, Roboto, Helvetica, Arial, sans-serif; font-weight: 400;" data-final-font-size="26">
      <tspan x="1214.0" dy="32.84px">Bright light source appears</tspan>
      <tspan x="1214.0" dy="29.90px">low over the ocean surface</tspan>
    </text>
    <rect id="ITEM_1_BODY_FRAME" x="1214" y="764.0" width="380" height="120" fill="none"/>
    <rect x="790.0" y="810.0" width="340" height="40" fill="var(--muted-text)" rx="4"/>
    <path d="M 710 850.0 Q 960 820.0 1210 850.0 L 1260 980 L 660 980 Z" fill="var(--panel)"/>
  </g>
</svg>
