<?xml version='1.0' encoding='utf-8'?>
<svg xmlns="http://www.w3.org/2000/svg" width="1920" height="1080" viewBox="0 0 1920 1080" data-theme="dark">
  <style>
        @font-face {
            font-family: 'Inter';
            src: url('assets/fonts/Inter-Regular.ttf') format('truetype');
            font-weight: 400;
            font-style: normal;
            font-display: swap;
        }
        @font-face {
            font-family: 'Inter';
            src: url('assets/fonts/Inter-Bold.ttf') format('truetype');
            font-weight: 600;
            font-style: normal;
            font-display: swap;
        }
        @font-face {
            font-family: 'Inter';
            src: url('assets/fonts/Inter-Bold.ttf') format('truetype');
            font-weight: 800;
            font-style: normal;
            font-display: swap;
        }
        
:root {
    --background: #0f172a;
    --panel: #1e293b;
    --primary-text: #f1f5f9;
    --muted-text: #94a3b8;
    --inverse-text: #0f172a;
    --border: #334155;
    --shadow-color: #000000;
    --icon-pad-bg: #1e293b;
    --art-glow: #7dd3fc;
    --art-glow-opacity: 0.18;
    --art-sheen: #ffffff;
    --art-sheen-opacity: 0.18;
    --art-shadow: #000000;
    --art-shadow-opacity: 0.28;
    --art-muted-line: #64748b;
    --art-panel-tint: #1e293b;
    --font-family: 'Inter', 'Segoe UI', 'Kalam', Roboto, Helvetica, Arial, sans-serif;
    --radius-xl: 16px;
    --font-family-headline: 'Inter', 'Segoe UI', 'Kalam', Roboto, Helvetica, Arial, sans-serif;
    --font-family-body: 'Inter', 'Segoe UI', 'Kalam', Roboto, Helvetica, Arial, sans-serif;
    --font-heading: 'Inter', 'Segoe UI', 'Kalam', Roboto, Helvetica, Arial, sans-serif;
    --font-body: 'Inter', 'Segoe UI', 'Kalam', Roboto, Helvetica, Arial, sans-serif;
    --font-size-h1: 56px;
    --font-size-h2: 40px;
    --font-size-h3: 28px;
    --font-size-body: 24px;
    --font-size-caption: 18px;
    --secondary-text: var(--muted-text);
    --panel-border: var(--border);
    --font-weight-normal: 400;
    --font-weight-medium: 500;
    --font-weight-semibold: 600;
    --font-weight-bold: 700;
    --spacing-gutter-pct: 0.07;
    --spacing-top-pct: 0.15;
    --spacing-bottom-pct: 0.07;
    --spacing-title-y-pct: 0.055;
    --accent-1: #22d3ee;
    --accent-2: #38bdf8;
    --accent-3: #60a5fa;
    --accent-4: #818cf8;
    --accent-5: #a78bfa;
    --accent-6: #2dd4bf;
}
:root[data-theme="dark"] {
    --background: #0f172a;
    --panel: #1e293b;
    --primary-text: #f1f5f9;
    --muted-text: #94a3b8;
    --inverse-text: #0f172a;
    --border: #334155;
    --shadow-color: #000000;
    --icon-pad-bg: #1e293b;
    --art-glow: #7dd3fc;
    --art-glow-opacity: 0.18;
    --art-sheen: #ffffff;
    --art-sheen-opacity: 0.18;
    --art-shadow: #000000;
    --art-shadow-opacity: 0.28;
    --art-muted-line: #64748b;
    --art-panel-tint: #1e293b;
    --accent-1: #22d3ee;
    --accent-2: #38bdf8;
    --accent-3: #60a5fa;
    --accent-4: #818cf8;
    --accent-5: #a78bfa;
    --accent-6: #2dd4bf;
}
:root[data-theme="light"] {
    --background: #f8fafc;
    --panel: #ffffff;
    --primary-text: #0f172a;
    --muted-text: #64748b;
    --inverse-text: #ffffff;
    --border: #e2e8f0;
    --shadow-color: #000000;
    --icon-pad-bg: #1e293b;
    --art-glow: #0891b2;
    --art-glow-opacity: 0.10;
    --art-sheen: #ffffff;
    --art-sheen-opacity: 0.34;
    --art-shadow: #0f172a;
    --art-shadow-opacity: 0.14;
    --art-muted-line: #94a3b8;
    --art-panel-tint: #f1f5f9;
    --accent-1: #0891b2;
    --accent-2: #0284c7;
    --accent-3: #2563eb;
    --accent-4: #4f46e5;
    --accent-5: #7c3aed;
    --accent-6: #0d9488;
}</style>
  <rect x="0" y="0" width="1.92E+3" height="1.08E+3" fill="#252a34" stroke="none" id="programmatic_background"/>
  <line id="HEADER_DECOR" x1="960.0" x2="1080.0" y1="135.0" y2="135.0" stroke="var(--accent-1)" stroke-width="6" stroke-linecap="round"/>
  <defs>
    <pattern id="svgb8c0200c-napkin-hatch" patternUnits="userSpaceOnUse" width="12" height="12">
      <path d="M -3 12 L 12 -3 M 0 15 L 15 0" fill="none" stroke="var(--primary-text)" stroke-width="1" stroke-opacity="0.05"/>
    </pattern>
    <filter id="svgb8c0200c-shadow" x="-30%" y="-30%" width="160%" height="160%">
      <feDropShadow dx="0" dy="2" stdDeviation="3" flood-color="#000000" flood-opacity="0.08"/>
      <feDropShadow dx="0" dy="6" stdDeviation="10" flood-color="#000000" flood-opacity="0.12"/>
    </filter>
    <radialGradient id="svgb8c0200c-universal-edge-vignette" cx="50%" cy="50%" r="72%">
      <stop offset="0%" stop-color="var(--background)" stop-opacity="0"/>
      <stop offset="72%" stop-color="var(--background)" stop-opacity="0.12"/>
      <stop offset="100%" stop-color="var(--primary-text)" stop-opacity="0.08"/>
    </radialGradient>
    <linearGradient id="svgb8c0200c-universal-surface-sheen" x1="0%" y1="0%" x2="100%" y2="100%">
      <stop offset="0%" stop-color="var(--art-sheen)" stop-opacity="var(--art-sheen-opacity)"/>
      <stop offset="46%" stop-color="var(--art-sheen)" stop-opacity="0.035"/>
      <stop offset="100%" stop-color="var(--art-panel-tint)" stop-opacity="0.14"/>
    </linearGradient>
    <radialGradient id="svgb8c0200c-universal-icon-aura" cx="50%" cy="42%" r="64%">
      <stop offset="0%" stop-color="var(--art-glow)" stop-opacity="var(--art-glow-opacity)"/>
      <stop offset="100%" stop-color="var(--background)" stop-opacity="0"/>
    </radialGradient>
    <linearGradient id="svgb8c0200c-fact-card-sheen" x1="0%" y1="0%" x2="100%" y2="100%">
      <stop offset="0%" stop-color="var(--inverse-text)" stop-opacity="0.18"/>
      <stop offset="54%" stop-color="var(--inverse-text)" stop-opacity="0.04"/>
      <stop offset="100%" stop-color="var(--background)" stop-opacity="0.14"/>
    </linearGradient>
    <radialGradient id="svgb8c0200c-fact-icon-glow" cx="50%" cy="42%" r="62%">
      <stop offset="0%" stop-color="var(--inverse-text)" stop-opacity="0.22"/>
      <stop offset="100%" stop-color="var(--background)" stop-opacity="0"/>
    </radialGradient>
    <filter id="svgb8c0200c-text-glow" x="-20%" y="-20%" width="140%" height="140%">
      <feDropShadow dx="0" dy="0" stdDeviation="2" flood-color="#000000" flood-opacity="0.4"/>
    </filter>
    <marker id="svgb8c0200c-arrowhead" markerWidth="10" markerHeight="7" refX="9" refY="3.5" orient="auto" markerUnits="strokeWidth">
      <polygon points="0 0, 10 3.5, 0 7" fill="var(--muted-text)" opacity="0.6"/>
    </marker>
  </defs>
  <rect width="100%" height="100%" fill="var(--background)" id="CANVAS_BG"/>
  <rect width="100%" height="100%" fill="url(#svgb8c0200c-napkin-hatch)"/>
  <rect id="UNIVERSAL_EDGE_VIGNETTE" width="100%" height="100%" fill="url(#svgb8c0200c-universal-edge-vignette)" opacity="0.62"/>
  <line x1="960" y1="178" x2="960" y2="986" stroke="var(--muted-text)" stroke-width="5" stroke-opacity="0.10" stroke-linecap="round"/>
  <path d="M 360 178 C 620 152 1300 152 1560 178" fill="none" stroke="var(--primary-text)" stroke-width="2" stroke-opacity="0.12" stroke-linecap="round"/>
  <text id="TITLE" x="960.0" y="59" text-anchor="middle" font-weight="800" font-size="72" fill="#f1f5f9" style="font-size: 60px; font-family: Inter, Segoe UI, Kalam, Roboto, Helvetica, Arial, sans-serif; font-weight: 700; letter-spacing:-1.2px;" data-final-font-size="60">
    <tspan x="960.0" dy="68.00px">Baffin Island Sighting Explanations</tspan>
  </text>
  <rect id="TITLE_FRAME" x="134" y="59" width="1652" height="103" fill="none"/>
  <g transform="translate(960.0, 250.0)">
    <rect id="ITEM_1_BG" x="-600" y="-72" width="1200" height="176" rx="24" fill="var(--accent-2)" stroke="var(--accent-1)" filter="url(#svgb8c0200c-shadow)" stroke-width="3" fill-opacity="0.4"/>
    <g transform="translate(-480.0, 0.0)">
      <circle r="60" fill="var(--background)" opacity="0.3"/>
      <circle id="ITEM_1_PAD" cx="0" cy="0" r="50" fill="var(--icon-pad-bg)" stroke="var(--primary-text)" opacity="0.9" fill-opacity="0.9" stroke-width="2"/>
      <circle id="ITEM_1_PAD_INNER" cx="0" cy="0" r="39.00" fill="var(--accent-2)" fill-opacity="0.22"/>
      <circle cx="0" cy="0" r="40" fill="none" stroke="var(--accent-1)" stroke-width="3" stroke-dasharray="6 4"/>
      <g id="ITEM_1_ICON" transform="translate(-39, -39)" data-icon-size="78" stroke-dasharray="6 4">
        <g transform="translate(-6.902654867256636,-4.831858407079646) scale(2.7610619469026547)">
          <path d="M16.25 29.25C16.25 29.6642 15.9143 30 15.5 30C15.0858 30 14.75 29.6642 14.75 29.25V18.2847L6.35413 29.6945C6.10863 30.0281 5.63916 30.0996 5.30554 29.8541C4.97192 29.6086 4.90047 29.1391 5.14597 28.8055L13.8421 16.9877C13.3669 16.9119 13 16.4964 13 16C13 15.4505 13.4497 15 13.9983 15H14.75V11.75C14.75 11.3358 15.0858 11 15.5 11C15.9143 11 16.25 11.3358 16.25 11.75V15H17.0018C17.5504 15 18 15.4505 18 16C18 16.421 17.7361 16.7839 17.366 16.9306L26.1041 28.8055C26.3496 29.1391 26.2782 29.6086 25.9446 29.8541C25.6109 30.0996 25.1415 30.0281 24.896 29.6945L16.25 17.9449V29.25Z" fill="#7167A4"/>
          <path d="M3.22683 4.27809C2.6088 5.92946 3.30622 7.78583 4.80973 8.60757L5.74923 8.95918L7.99999 8.00013L8.99999 4.00013L8.19939 2.40199L7.26328 2.05165C5.5897 1.68436 3.84485 2.62671 3.22683 4.27809Z" fill="#AEDDFF"/>
          <path d="M22.8343 8.94678L27.5555 10.7137L29 13.0001L28 15.0001L25.7687 15.3837L21.0817 13.6296L20 10.5001L22.8343 8.94678Z" fill="#D3D3D3"/>
          <path d="M8.59557 3.94216L11.9373 3.80078L23.1846 8.01009L20.731 14.566L9.48157 10.3559L7.48633 7.72365L8.59557 3.94216Z" fill="#BEBEBE"/>
          <path d="M11.9459 3.80389L8.19965 2.40186L5.74609 8.95777L9.49233 10.3598L11.9459 3.80389Z" fill="#5235A6"/>
          <path d="M29.39 11.4001L27.5169 10.6991L25.7644 15.3819L27.6375 16.0829C28.1547 16.2765 28.731 16.0141 28.9246 15.4969L29.9761 12.6872C30.1697 12.1699 29.9073 11.5937 29.39 11.4001Z" fill="#5235A6"/>
        </g>
      </g>
    </g>
    <g transform="translate(-330, -36)">
      <text id="ITEM_1_HEAD" text-anchor="start" font-weight="bold" font-size="34" fill="var(--primary-text)" x="0.0" y="-10.0" data-bg-id="ITEM_1_BG" fill-opacity="1.0" stroke="none" style="font-size: 30px; font-family: Inter, Segoe UI, Kalam, Roboto, Helvetica, Arial, sans-serif; font-weight: 700; letter-spacing:-0.4px;" data-final-font-size="30">
        <tspan x="0.0" dy="30.25px">Atmospheric Scintillation</tspan>
      </text>
      <rect id="ITEM_1_HEAD_FRAME" x="0" y="-10" width="846" height="44" fill="none"/>
      <text id="ITEM_1_BODY" text-anchor="start" font-size="24" fill="var(--primary-text)" x="0.0" y="24.0" data-bg-id="ITEM_1_BG" style="font-size: 26px; font-family: Inter, Segoe UI, Kalam, Roboto, Helvetica, Arial, sans-serif; font-weight: 400;" data-final-font-size="26">
        <tspan x="0.0" dy="31.62px">Stars flash red and green through turbulent air layers</tspan>
      </text>
      <rect id="ITEM_1_BODY_FRAME" x="0" y="24" width="846" height="84" fill="none"/>
    </g>
  </g>
  <g transform="translate(960.0, 465.0)">
    <rect id="ITEM_2_BG" x="-600" y="-72" width="1200" height="176" rx="24" fill="var(--accent-3)" stroke="var(--accent-2)" filter="url(#svgb8c0200c-shadow)" stroke-width="3" fill-opacity="0.4"/>
    <g transform="translate(-480.0, 0.0)">
      <circle r="60" fill="var(--background)" opacity="0.3"/>
      <circle id="ITEM_2_PAD" cx="0" cy="0" r="50" fill="var(--icon-pad-bg)" stroke="var(--primary-text)" opacity="0.9" fill-opacity="0.9" stroke-width="2"/>
      <circle id="ITEM_2_PAD_INNER" cx="0" cy="0" r="39.00" fill="var(--accent-3)" fill-opacity="0.22"/>
      <circle cx="0" cy="0" r="40" fill="none" stroke="var(--accent-1)" stroke-width="3" stroke-dasharray="6 4"/>
      <g id="ITEM_2_ICON" transform="translate(-39, -39)" data-icon-size="78" stroke-dasharray="6 4">
        <g transform="translate(-5.571428571428571,-5.571428571428571) scale(2.7857142857142856)">
          <path d="M26.33 30H5.67C3.64 30 2 28.36 2 26.33V5.67C2 3.64 3.64 2 5.67 2H19.316L24.9671 4.03763L28.0109 6.20831L30 13.6299V26.33C30 28.36 28.36 30 26.33 30Z" fill="#533566"/>
          <path d="M8.98999 5.5C8.98999 5.77614 8.76613 6 8.48999 6C8.21385 6 7.98999 5.77614 7.98999 5.5C7.98999 5.22386 8.21385 5 8.48999 5C8.76613 5 8.98999 5.22386 8.98999 5.5ZM5.48999 11C5.76613 11 5.98999 10.7761 5.98999 10.5C5.98999 10.2239 5.76613 10 5.48999 10C5.21385 10 4.98999 10.2239 4.98999 10.5C4.98999 10.7761 5.21385 11 5.48999 11ZM24.99 22.5C24.99 22.7761 24.7661 23 24.49 23C24.2138 23 23.99 22.7761 23.99 22.5C23.99 22.2239 24.2138 22 24.49 22C24.7661 22 24.99 22.2239 24.99 22.5ZM23.99 26.5C23.99 26.7761 23.7661 27 23.49 27C23.2138 27 22.99 26.7761 22.99 26.5C22.99 26.2239 23.2138 26 23.49 26C23.7661 26 23.99 26.2239 23.99 26.5ZM4.48999 25C4.76613 25 4.98999 24.7761 4.98999 24.5C4.98999 24.2239 4.76613 24 4.48999 24C4.21385 24 3.98999 24.2239 3.98999 24.5C3.98999 24.7761 4.21385 25 4.48999 25ZM27.99 26.5C27.99 26.7761 27.7661 27 27.49 27C27.2138 27 26.99 26.7761 26.99 26.5C26.99 26.2239 27.2138 26 27.49 26C27.7661 26 27.99 26.2239 27.99 26.5Z" fill="#E1D8EC"/>
          <path d="M30 5.67C30 3.64 28.36 2 26.33 2H19.29L9.25 11.6L19.64 24L30 13.64V5.67V5.67Z" fill="#A38439"/>
          <path d="M11.0301 11.82L13.1101 13.69C13.5001 14.04 14.0301 14.17 14.5401 14.04L17.2601 13.35C18.4901 13.04 19.56 14.24 19.1 15.43L18.0101 18.25C17.8301 18.71 17.8801 19.23 18.1501 19.65L19.7601 22.2C20.4601 23.3 19.5701 24.72 18.2801 24.58L15.63 24.3C15.1 24.24 14.57 24.47 14.24 24.89L12.6 26.99C11.8 28.02 10.1701 27.67 9.86006 26.4L9.14006 23.47C9.02006 22.99 8.68005 22.59 8.23005 22.4L5.44005 21.23C4.27005 20.74 4.14004 19.13 5.22004 18.46L7.61006 16.98C8.05006 16.71 8.33005 16.23 8.35005 15.71L8.45006 12.92C8.48006 11.6 10.0401 10.94 11.0301 11.82Z" fill="#FCD53F"/>
        </g>
      </g>
    </g>
    <g transform="translate(-330, -36)">
      <text id="ITEM_2_HEAD" text-anchor="start" font-weight="bold" font-size="34" fill="var(--primary-text)" x="0.0" y="-10.0" data-bg-id="ITEM_2_BG" fill-opacity="1.0" stroke="none" style="font-size: 30px; font-family: Inter, Segoe UI, Kalam, Roboto, Helvetica, Arial, sans-serif; font-weight: 700; letter-spacing:-0.4px;" data-final-font-size="30">
        <tspan x="0.0" dy="30.25px">Meteor Activity</tspan>
      </text>
      <rect id="ITEM_2_HEAD_FRAME" x="0" y="-10" width="846" height="44" fill="none"/>
      <text id="ITEM_2_BODY" text-anchor="start" font-size="24" fill="var(--primary-text)" x="0.0" y="24.0" data-bg-id="ITEM_2_BG" style="font-size: 26px; font-family: Inter, Segoe UI, Kalam, Roboto, Helvetica, Arial, sans-serif; font-weight: 400;" data-final-font-size="26">
        <tspan x="0.0" dy="31.62px">Fast moving debris creates bright luminous visual effects</tspan>
      </text>
      <rect id="ITEM_2_BODY_FRAME" x="0" y="24" width="846" height="84" fill="none"/>
    </g>
  </g>
  <g transform="translate(960.0, 660.0)">
    <rect id="ITEM_3_BG" x="-600" y="-72" width="1200" height="176" rx="24" fill="var(--accent-4)" stroke="var(--accent-3)" filter="url(#svgb8c0200c-shadow)" stroke-width="3" fill-opacity="0.4"/>
    <g transform="translate(-480.0, 0.0)">
      <circle r="60" fill="var(--background)" opacity="0.3"/>
      <circle id="ITEM_3_PAD" cx="0" cy="0" r="50" fill="var(--icon-pad-bg)" stroke="var(--primary-text)" opacity="0.9" fill-opacity="0.9" stroke-width="2"/>
      <circle id="ITEM_3_PAD_INNER" cx="0" cy="0" r="39.00" fill="var(--accent-4)" fill-opacity="0.22"/>
      <circle cx="0" cy="0" r="40" fill="none" stroke="var(--accent-2)" stroke-width="3" stroke-dasharray="6 4"/>
      <g id="ITEM_3_ICON" transform="translate(-39, -39)" data-icon-size="78" stroke-dasharray="6 4">
        <g transform="translate(-1.5853658536585407,-2.5365853658536586) scale(3.3821138211382116)" vector-effect="non-scaling-stroke" stroke-width="2.65" stroke-linecap="round" stroke-linejoin="round" stroke-opacity="1.0">
          <path d="M4 9.5C4 14.0714 9.71429 17.5 9.71429 17.5H14.2857C14.2857 17.5 20 14.0714 20 9.5C20 4.92857 16.4183 1.5 12 1.5C7.58172 1.5 4 4.92857 4 9.5Z" stroke="#f1f5f9" vector-effect="non-scaling-stroke" fill="none"/>
          <path d="M8.99999 2C5.99996 8 10 17.5 10 17.5" stroke="#f1f5f9" vector-effect="non-scaling-stroke" fill="none"/>
          <path d="M14.8843 2C17.8843 8 13.8843 17.5 13.8843 17.5" stroke="#f1f5f9" vector-effect="non-scaling-stroke" fill="none"/>
          <path d="M13.4 23H10.6C10.2686 23 10 22.7314 10 22.4V20.6C10 20.2686 10.2686 20 10.6 20H13.4C13.7314 20 14 20.2686 14 20.6V22.4C14 22.7314 13.7314 23 13.4 23Z" stroke="#f1f5f9" vector-effect="non-scaling-stroke" fill="none"/>
        </g>
      </g>
    </g>
    <g transform="translate(-330, -36)">
      <text id="ITEM_3_HEAD" text-anchor="start" font-weight="bold" font-size="34" fill="var(--primary-text)" x="0.0" y="-10.0" data-bg-id="ITEM_3_BG" fill-opacity="1.0" stroke="none" style="font-size: 30px; font-family: Inter, Segoe UI, Kalam, Roboto, Helvetica, Arial, sans-serif; font-weight: 700; letter-spacing:-0.4px;" data-final-font-size="30">
        <tspan x="0.0" dy="30.25px">Reflective Balloons</tspan>
      </text>
      <rect id="ITEM_3_HEAD_FRAME" x="0" y="-10" width="846" height="44" fill="none"/>
      <text id="ITEM_3_BODY" text-anchor="start" font-size="24" fill="var(--primary-text)" x="0.0" y="24.0" data-bg-id="ITEM_3_BG" style="font-size: 26px; font-family: Inter, Segoe UI, Kalam, Roboto, Helvetica, Arial, sans-serif; font-weight: 400;" data-final-font-size="26">
        <tspan x="0.0" dy="31.62px">High altitude balloons reflect sunlight from beyond the horizon</tspan>
      </text>
      <rect id="ITEM_3_BODY_FRAME" x="0" y="24" width="846" height="84" fill="none"/>
    </g>
  </g>
  <g transform="translate(960.0, 855.0)">
    <rect id="ITEM_4_BG" x="-600" y="-72" width="1200" height="176" rx="24" fill="var(--accent-5)" stroke="var(--accent-4)" filter="url(#svgb8c0200c-shadow)" stroke-width="3" fill-opacity="0.4"/>
    <g transform="translate(-480.0, 0.0)">
      <circle r="60" fill="var(--background)" opacity="0.3"/>
      <circle id="ITEM_4_PAD" cx="0" cy="0" r="50" fill="var(--icon-pad-bg)" stroke="var(--primary-text)" opacity="0.9" fill-opacity="0.9" stroke-width="2"/>
      <circle id="ITEM_4_PAD_INNER" cx="0" cy="0" r="39.00" fill="var(--accent-5)" fill-opacity="0.22"/>
      <circle cx="0" cy="0" r="40" fill="none" stroke="var(--accent-3)" stroke-width="3" stroke-dasharray="6 4"/>
      <g id="ITEM_4_ICON" transform="translate(-39, -39)" data-icon-size="78" stroke-dasharray="6 4">
        <g transform="translate(-2.6,-3.2500000000000018) scale(0.1625)" vector-effect="non-scaling-stroke" fill="#f1f5f9" fill-opacity="1.0" stroke="none">
          <path fill="#f1f5f9" d="M256 25.162c-.445.165-1.342.498-2.506 1.24c-2.093 1.334-4.922 3.615-8.002 6.58c-6.16 5.932-13.396 14.576-20.12 24.18a179 179 0 0 0-3.69 5.516c11.783-2.326 23.053-3.5 34.318-3.5s22.535 1.174 34.318 3.5a179 179 0 0 0-3.69-5.516c-6.724-9.604-13.96-18.248-20.12-24.18c-3.08-2.965-5.91-5.246-8.002-6.58a12.4 12.4 0 0 0-2.506-1.24m0 51.662c-14.685 0-29.38 2.38-46.22 7.114C204.42 95.194 201 105.57 201 112v159.64c5.106-17.267 9.62-38.235 14-64.404V192c0-11 4.557-23.42 11.283-34.63c3.363-5.606 7.31-10.793 12.072-14.92C243.118 138.32 249 135 256 135s12.882 3.322 17.645 7.45c4.762 4.127 8.71 9.314 12.072 14.92C292.443 168.58 297 181 297 192v15.236c4.38 26.17 8.894 47.137 14 64.403V112c0-6.43-3.42-16.806-8.78-28.063c-16.84-4.734-31.535-7.113-46.22-7.113m-88 52.56c-6.513 11.517-15 29.352-15 46.616v39h30v-39c0-17.264-8.487-35.1-15-46.615zm176 0c-6.513 11.517-15 29.352-15 46.616v39h30v-39c0-17.264-8.487-35.1-15-46.615zM256 153c-1 0-3.118.678-5.855 3.05c-2.738 2.373-5.79 6.186-8.428 10.58C236.443 175.42 233 187 233 192v163.78l-2.697 2.644c-10.61 10.408-12.83 36.14-13.15 52.77c6.674 3.535 17.826 6.417 29.847 7.42V368h18v50.613c12.023-1.004 23.178-3.885 29.852-7.422c-.308-16.586-2.46-42.072-13.215-52.827L279 355.73V192c0-5-3.443-16.58-8.717-25.37c-2.637-4.394-5.69-8.207-8.428-10.58C259.118 153.68 257 153 256 153m-16 30h32v18h-32zm-87 50v116.316c12.42-10.644 21.995-21.32 30-34.69V233zm176 0v81.627c8.005 13.368 17.58 24.045 30 34.69V233zm-114 53.975c-3.513 10.4-7.342 19.745-11.697 28.175c-9.305 18.01-20.907 32.004-35.457 45.032l38.675 1.933c2.16-4.848 4.922-9.458 8.48-13.584v-61.555zm82 0v61.6c3.515 4.13 6.253 8.725 8.4 13.544l38.754-1.938c-14.55-13.028-26.152-27.023-35.457-45.032c-4.355-8.43-8.184-17.775-11.697-28.175zm197 16.04c-13.547 5.65-19.025 19.56-26.95 41.83c0 0-45.814.42-53.376 17.557c-8.08 18.31 24.582 54.784 24.582 54.784s-27.132-8.726-37.926-2.108c-11.983 7.348-17.012 38.586-17.012 38.586c-3.533-.847-6.9-1.547-10.14-2.133L362.666 420h10.668l-5.992-10.957l-53.514 2.676l-.816 1.503c-.005.914-.012 1.954-.012 2.777v4h7l-10.666 32l21.332-16l5.004 15.008c-14.785 3.136-25.546 10.693-35.9 20.533L288 448h16l-12.803-15.607C280.517 435.733 268.283 437 256 437c-12.312 0-24.576-1.272-35.273-4.63L208 448h16l-12.89 25.78c-12.137-5.026-25.02-10.03-37.602-14.305L181.334 436l21.332 16L192 420h7v-4c0-.807-.008-1.832-.014-2.73l-.85-1.553l-53.52-2.676l-5.95 10.96h10.668l-9.955 29.86c-3.99-.816-7.803-1.45-11.38-1.86c-31.566-3.623-39.72 4.634-57.932 12.416c0 0 16.664-96.575-16.69-118.38c-4.128-2.7-9.283-3.783-14.993-3.73c-6.33.056-13.342 1.526-20.385 3.733V494h237l1 2l16-32l23.488 11.744c-5.562 5.625-11.157 11.82-17.355 18.256H494zM147.02 377.16c-5.396 4.877-6.897 9.625-6.817 11.555c.046 1.094.238 1.25.508 1.49c.27.242 1.017.793 3.29.793h.225l55.195 2.76c.316-4.473.846-9.163 1.732-13.89zm217.96 0l-54.187 2.71c.896 4.73 1.437 9.418 1.762 13.89l55.22-2.762H368c2.273 0 3.02-.55 3.29-.793c.27-.24.46-.396.507-1.49c.08-1.93-1.42-6.678-6.817-11.555M160 436l7.12 21.365c-9.11-2.933-17.94-5.404-26.075-7.148zm192 0l20.547 15.41c-9.475-1.674-17.715-2.228-25.057-1.88zm-112 28l14.545 29.09c-9.876-4.675-23.293-10.83-38.356-17.186z" vector-effect="non-scaling-stroke" stroke="none"/>
        </g>
      </g>
    </g>
    <g transform="translate(-330, -36)">
      <text id="ITEM_4_HEAD" text-anchor="start" font-weight="bold" font-size="34" fill="var(--primary-text)" x="0.0" y="-10.0" data-bg-id="ITEM_4_BG" fill-opacity="1.0" stroke="none" style="font-size: 30px; font-family: Inter, Segoe UI, Kalam, Roboto, Helvetica, Arial, sans-serif; font-weight: 700; letter-spacing:-0.4px;" data-final-font-size="30">
        <tspan x="0.0" dy="30.25px">Spacecraft Debris</tspan>
      </text>
      <rect id="ITEM_4_HEAD_FRAME" x="0" y="-10" width="846" height="44" fill="none"/>
      <text id="ITEM_4_BODY" text-anchor="start" font-size="24" fill="var(--primary-text)" x="0.0" y="24.0" data-bg-id="ITEM_4_BG" style="font-size: 26px; font-family: Inter, Segoe UI, Kalam, Roboto, Helvetica, Arial, sans-serif; font-weight: 400;" data-final-font-size="26">
        <tspan x="0.0" dy="31.62px">Rocket launches or re-entry events create luminous displays</tspan>
      </text>
      <rect id="ITEM_4_BODY_FRAME" x="0" y="24" width="846" height="84" fill="none"/>
    </g>
  </g>
</svg>
