<?xml version='1.0' encoding='utf-8'?>
<svg xmlns="http://www.w3.org/2000/svg" width="1920" height="1080" viewBox="0 0 1920 1080" data-theme="dark">
  <style>
        @font-face {
            font-family: 'Inter';
            src: url('assets/fonts/Inter-Regular.ttf') format('truetype');
            font-weight: 400;
            font-style: normal;
            font-display: swap;
        }
        @font-face {
            font-family: 'Inter';
            src: url('assets/fonts/Inter-Bold.ttf') format('truetype');
            font-weight: 600;
            font-style: normal;
            font-display: swap;
        }
        @font-face {
            font-family: 'Inter';
            src: url('assets/fonts/Inter-Bold.ttf') format('truetype');
            font-weight: 800;
            font-style: normal;
            font-display: swap;
        }
        
:root {
    --background: #0f172a;
    --panel: #1e293b;
    --primary-text: #f1f5f9;
    --muted-text: #94a3b8;
    --inverse-text: #0f172a;
    --border: #334155;
    --shadow-color: #000000;
    --icon-pad-bg: #1e293b;
    --art-glow: #7dd3fc;
    --art-glow-opacity: 0.18;
    --art-sheen: #ffffff;
    --art-sheen-opacity: 0.18;
    --art-shadow: #000000;
    --art-shadow-opacity: 0.28;
    --art-muted-line: #64748b;
    --art-panel-tint: #1e293b;
    --font-family: 'Inter', 'Segoe UI', 'Kalam', Roboto, Helvetica, Arial, sans-serif;
    --radius-xl: 16px;
    --font-family-headline: 'Inter', 'Segoe UI', 'Kalam', Roboto, Helvetica, Arial, sans-serif;
    --font-family-body: 'Inter', 'Segoe UI', 'Kalam', Roboto, Helvetica, Arial, sans-serif;
    --font-heading: 'Inter', 'Segoe UI', 'Kalam', Roboto, Helvetica, Arial, sans-serif;
    --font-body: 'Inter', 'Segoe UI', 'Kalam', Roboto, Helvetica, Arial, sans-serif;
    --font-size-h1: 56px;
    --font-size-h2: 40px;
    --font-size-h3: 28px;
    --font-size-body: 24px;
    --font-size-caption: 18px;
    --secondary-text: var(--muted-text);
    --panel-border: var(--border);
    --font-weight-normal: 400;
    --font-weight-medium: 500;
    --font-weight-semibold: 600;
    --font-weight-bold: 700;
    --spacing-gutter-pct: 0.07;
    --spacing-top-pct: 0.15;
    --spacing-bottom-pct: 0.07;
    --spacing-title-y-pct: 0.055;
    --accent-1: #60a5fa;
    --accent-2: #4ade80;
    --accent-3: #f97316;
    --accent-4: #a78bfa;
    --accent-5: #38bdf8;
    --accent-6: #94a3b8;
}
:root[data-theme="dark"] {
    --background: #0f172a;
    --panel: #1e293b;
    --primary-text: #f1f5f9;
    --muted-text: #94a3b8;
    --inverse-text: #0f172a;
    --border: #334155;
    --shadow-color: #000000;
    --icon-pad-bg: #1e293b;
    --art-glow: #7dd3fc;
    --art-glow-opacity: 0.18;
    --art-sheen: #ffffff;
    --art-sheen-opacity: 0.18;
    --art-shadow: #000000;
    --art-shadow-opacity: 0.28;
    --art-muted-line: #64748b;
    --art-panel-tint: #1e293b;
    --accent-1: #60a5fa;
    --accent-2: #4ade80;
    --accent-3: #f97316;
    --accent-4: #a78bfa;
    --accent-5: #38bdf8;
    --accent-6: #94a3b8;
}
:root[data-theme="light"] {
    --background: #f8fafc;
    --panel: #ffffff;
    --primary-text: #0f172a;
    --muted-text: #64748b;
    --inverse-text: #ffffff;
    --border: #e2e8f0;
    --shadow-color: #000000;
    --icon-pad-bg: #1e293b;
    --art-glow: #0891b2;
    --art-glow-opacity: 0.10;
    --art-sheen: #ffffff;
    --art-sheen-opacity: 0.34;
    --art-shadow: #0f172a;
    --art-shadow-opacity: 0.14;
    --art-muted-line: #94a3b8;
    --art-panel-tint: #f1f5f9;
    --accent-1: #2563eb;
    --accent-2: #16a34a;
    --accent-3: #ea580c;
    --accent-4: #7c3aed;
    --accent-5: #0284c7;
    --accent-6: #475569;
}</style>
  <rect x="0" y="0" width="1.92E+3" height="1.08E+3" fill="#252a34" stroke="none" id="programmatic_background"/>
  <line id="HEADER_DECOR" x1="960.0" x2="1080.0" y1="135.0" y2="135.0" stroke="var(--accent-1)" stroke-width="6" stroke-linecap="round"/>
  <defs>
    <pattern id="svg60a47674-napkin-hatch" patternUnits="userSpaceOnUse" width="12" height="12">
      <path d="M -3 12 L 12 -3 M 0 15 L 15 0" fill="none" stroke="var(--primary-text)" stroke-width="1" stroke-opacity="0.05"/>
    </pattern>
    <filter id="svg60a47674-shadow" x="-30%" y="-30%" width="160%" height="160%">
      <feDropShadow dx="0" dy="2" stdDeviation="3" flood-color="#000000" flood-opacity="0.08"/>
      <feDropShadow dx="0" dy="6" stdDeviation="10" flood-color="#000000" flood-opacity="0.12"/>
    </filter>
    <filter id="svg60a47674-beam-glow" x="-40%" y="-40%" width="180%" height="180%">
      <feDropShadow dx="0" dy="0" stdDeviation="8" flood-color="#000000" flood-opacity="0.12"/>
    </filter>
    <radialGradient id="svg60a47674-universal-edge-vignette" cx="50%" cy="50%" r="72%">
      <stop offset="0%" stop-color="var(--background)" stop-opacity="0"/>
      <stop offset="72%" stop-color="var(--background)" stop-opacity="0.12"/>
      <stop offset="100%" stop-color="var(--primary-text)" stop-opacity="0.08"/>
    </radialGradient>
    <linearGradient id="svg60a47674-universal-surface-sheen" x1="0%" y1="0%" x2="100%" y2="100%">
      <stop offset="0%" stop-color="var(--art-sheen)" stop-opacity="var(--art-sheen-opacity)"/>
      <stop offset="46%" stop-color="var(--art-sheen)" stop-opacity="0.035"/>
      <stop offset="100%" stop-color="var(--art-panel-tint)" stop-opacity="0.14"/>
    </linearGradient>
    <radialGradient id="svg60a47674-universal-icon-aura" cx="50%" cy="42%" r="64%">
      <stop offset="0%" stop-color="var(--art-glow)" stop-opacity="var(--art-glow-opacity)"/>
      <stop offset="100%" stop-color="var(--background)" stop-opacity="0"/>
    </radialGradient>
    <linearGradient id="svg60a47674-prism-glass-sheen" x1="0%" y1="0%" x2="100%" y2="100%">
      <stop offset="0%" stop-color="var(--inverse-text)" stop-opacity="0.20"/>
      <stop offset="100%" stop-color="var(--inverse-text)" stop-opacity="0"/>
    </linearGradient>
    <filter id="svg60a47674-text-glow" x="-20%" y="-20%" width="140%" height="140%">
      <feDropShadow dx="0" dy="0" stdDeviation="2" flood-color="#000000" flood-opacity="0.4"/>
    </filter>
    <marker id="svg60a47674-arrowhead" markerWidth="10" markerHeight="7" refX="9" refY="3.5" orient="auto" markerUnits="strokeWidth">
      <polygon points="0 0, 10 3.5, 0 7" fill="var(--muted-text)" opacity="0.6"/>
    </marker>
  </defs>
  <rect width="100%" height="100%" fill="var(--background)" id="CANVAS_BG"/>
  <rect width="100%" height="100%" fill="url(#svg60a47674-napkin-hatch)"/>
  <rect id="UNIVERSAL_EDGE_VIGNETTE" width="100%" height="100%" fill="url(#svg60a47674-universal-edge-vignette)" opacity="0.62"/>
  <text id="TITLE" x="960.0" y="59" text-anchor="middle" font-weight="800" font-size="56" fill="#f1f5f9" style="font-size: 60px; font-family: Inter, Segoe UI, Kalam, Roboto, Helvetica, Arial, sans-serif; font-weight: 700; letter-spacing:-1.2px;" data-final-font-size="60">
    <tspan x="960.0" dy="68.00px">Atmospheric Optics in PEI Coastal Waters</tspan>
  </text>
  <rect id="TITLE_FRAME" x="134" y="59" width="1652" height="103" fill="none"/>
  <path d="M 0 540 L 598 540" stroke="var(--primary-text)" stroke-width="20" stroke-linecap="round" opacity="0.08"/>
  <path d="M 0 540 L 598 540" stroke="var(--primary-text)" stroke-width="10" stroke-linecap="round" opacity="0.45"/>
  <text x="200" y="500" font-weight="bold" font-size="32" fill="var(--muted-text)">INPUT</text>
  <ellipse id="PRISM_ART_SHADOW" cx="690" cy="718" rx="180" ry="38" fill="var(--primary-text)" opacity="0.055"/>
  <path d="M 600 690 L 600 390 L 840 540 Z" fill="var(--panel)" fill-opacity="0.72" stroke="var(--primary-text)" stroke-width="9" stroke-opacity="0.75"/>
  <path id="PRISM_ART_GLASS_SHEEN" d="M 622 426 L 622 654 L 792 540 Z" fill="url(#svg60a47674-prism-glass-sheen)" opacity="0.88"/>
  <path d="M 600 540 L 756 540" fill="none" stroke="var(--primary-text)" stroke-width="3" stroke-opacity="0.28"/>
  <path d="M 600 390 L 688 540 L 600 690" fill="none" stroke="var(--primary-text)" stroke-width="3" stroke-opacity="0.18"/>
  <g>
    <line x1="840" y1="540" x2="1100" y2="275" stroke="var(--accent-1)" stroke-width="18" stroke-linecap="round" opacity="0.18" filter="url(#svg60a47674-beam-glow)"/>
    <line x1="840" y1="540" x2="1100" y2="275" stroke="var(--accent-1)" stroke-width="4" stroke-linecap="round" opacity="0.72"/>
    <g transform="translate(1100, 275)">
      <path id="ITEM_1_BG" d="M 0 -60 L 610 -60 L 740 15 L 610 90 L 0 90 L 56 15 Z" fill="var(--panel)" fill-opacity="0.95" stroke="var(--accent-1)" stroke-width="3" filter="url(#svg60a47674-shadow)"/>
      <rect id="ITEM_1_TEXT_BG" x="138" y="-42" width="520" height="114" rx="18" fill="var(--panel)" fill-opacity="0.9" stroke="var(--primary-text)" stroke-opacity="0.1" stroke-width="1.5"/>
      <rect x="150" y="-32" width="496" height="94" rx="14" fill="url(#svg60a47674-universal-surface-sheen)" opacity="0.76"/>
      <circle cx="82" cy="15" r="56" fill="url(#svg60a47674-universal-icon-aura)" opacity="0.82"/>
      <circle id="ITEM_1_PAD" cx="82" cy="15" r="40" fill="var(--icon-pad-bg)" stroke="var(--primary-text)" opacity="0.94" fill-opacity="0.9" stroke-width="2"/>
      <circle id="ITEM_1_PAD_INNER" cx="82" cy="15" r="31.20" fill="var(--accent-4)" fill-opacity="0.22"/>
      <circle cx="82" cy="15" r="32" fill="none" stroke="var(--accent-1)" stroke-width="3" stroke-dasharray="6 4"/>
      <g id="ITEM_1_ICON" transform="translate(50, -17)" data-icon-size="64" stroke-dasharray="6 4">
        <g transform="translate(-4.571428571428569,-2.2857142857142856) scale(0.2857142857142857)" vector-effect="non-scaling-stroke" stroke-width="2.48" stroke-linecap="round" stroke-linejoin="round" stroke-opacity="1.0">
          <line x1="80" y1="56" x2="176" y2="56" fill="none" stroke="#f1f5f9" vector-effect="non-scaling-stroke"/>
          <path d="M80,56,64,215.24A8,8,0,0,0,72,224H184a8,8,0,0,0,8-8.76L176,56,133.12,17.85a8,8,0,0,0-10.24,0Z" fill="none" stroke="#f1f5f9" vector-effect="non-scaling-stroke"/>
          <line x1="128" y1="88" x2="128" y2="112" fill="none" stroke="#f1f5f9" vector-effect="non-scaling-stroke"/>
          <polyline points="208 88 208 112 48 112 48 88" fill="none" stroke="#f1f5f9" vector-effect="non-scaling-stroke"/>
          <line x1="68.77" y1="168" x2="187.23" y2="168" fill="none" stroke="#f1f5f9" vector-effect="non-scaling-stroke"/>
        </g>
      </g>
      <text id="ITEM_1_HEAD" x="162.0" y="-30.0" font-weight="700" font-size="27" fill="var(--accent-4)" data-bg-id="ITEM_1_TEXT_BG" fill-opacity="1.0" stroke="none" style="font-size: 30px; font-family: Inter, Segoe UI, Kalam, Roboto, Helvetica, Arial, sans-serif; font-weight: 700; letter-spacing:-0.4px;" data-final-font-size="30">
        <tspan x="162.0" dy="29.49px">Looming Effects</tspan>
      </text>
      <rect id="ITEM_1_HEAD_FRAME" x="162" y="-30" width="472" height="36" fill="none"/>
      <text id="ITEM_1_BODY" x="162.0" y="10.0" font-size="18.5" fill="var(--primary-text)" data-bg-id="ITEM_1_TEXT_BG" style="font-size: 26px; font-family: Inter, Segoe UI, Kalam, Roboto, Helvetica, Arial, sans-serif; font-weight: 400;" data-final-font-size="26">
        <tspan x="162.0" dy="23.00px">Distant lights appear elevated above</tspan>
        <tspan x="162.0" dy="29.90px">their physical position</tspan>
      </text>
      <rect id="ITEM_1_BODY_FRAME" x="162" y="10" width="468" height="60" fill="none"/>
    </g>
    <line x1="840" y1="540" x2="1100" y2="425" stroke="var(--accent-2)" stroke-width="18" stroke-linecap="round" opacity="0.18" filter="url(#svg60a47674-beam-glow)"/>
    <line x1="840" y1="540" x2="1100" y2="425" stroke="var(--accent-2)" stroke-width="4" stroke-linecap="round" opacity="0.72"/>
    <g transform="translate(1100, 425)">
      <path id="ITEM_2_BG" d="M 0 -60 L 610 -60 L 740 15 L 610 90 L 0 90 L 56 15 Z" fill="var(--panel)" fill-opacity="0.95" stroke="var(--accent-2)" stroke-width="3" filter="url(#svg60a47674-shadow)"/>
      <rect id="ITEM_2_TEXT_BG" x="138" y="-42" width="520" height="114" rx="18" fill="var(--panel)" fill-opacity="0.9" stroke="var(--primary-text)" stroke-opacity="0.1" stroke-width="1.5"/>
      <rect x="150" y="-32" width="496" height="94" rx="14" fill="url(#svg60a47674-universal-surface-sheen)" opacity="0.76"/>
      <circle cx="82" cy="15" r="56" fill="url(#svg60a47674-universal-icon-aura)" opacity="0.82"/>
      <circle id="ITEM_2_PAD" cx="82" cy="15" r="40" fill="var(--icon-pad-bg)" stroke="var(--primary-text)" opacity="0.94" fill-opacity="0.9" stroke-width="2"/>
      <circle id="ITEM_2_PAD_INNER" cx="82" cy="15" r="31.20" fill="var(--accent-5)" fill-opacity="0.22"/>
      <circle cx="82" cy="15" r="32" fill="none" stroke="var(--accent-2)" stroke-width="3" stroke-dasharray="6 4"/>
      <g id="ITEM_2_ICON" transform="translate(50, -17)" data-icon-size="64" stroke-dasharray="6 4">
        <g transform="translate(-4.530973451327434,-6.513274336283185) scale(2.265486725663717)">
          <path d="M20 9L22 6H27V9H30V15L22 16L14 15L15.5646 9.43999C15.6335 9.17999 15.8696 9 16.1353 9H20Z" fill="#CDC4D6"/>
          <path d="M22 16H30V23L17 26L4 23L2.03838 17.2837C1.85708 16.6418 2.34056 16 3.01543 16H22Z" fill="#CDC4D6"/>
          <path d="M24.66 12.99H25.33C25.7 12.99 25.99 12.69 25.99 12.33V11.66C25.99 11.29 25.69 11 25.33 11H24.66C24.29 11 24 11.3 24 11.66V12.33C24 12.7 24.29 12.99 24.66 12.99Z" fill="#26EAFC"/>
          <path d="M4 23L5.801 29.2731C5.9204 29.7013 6.31841 30 6.76617 30H28.995C29.5522 30 30 29.5519 30 29.0043V23H4Z" fill="#CA0B4A"/>
          <path d="M21 11C21.54 11 22 11 22 12C22 12.9821 21.5563 12.99 21.0289 12.9995L21 13H14.5665L15.1242 11H21Z" fill="#00A6ED"/>
          <path d="M15.3362 21H14.6638C14.3017 21 14 20.6983 14 20.3362V19.6638C14 19.3017 14.2931 19 14.6638 19H15.3362C15.6983 19 16 19.2931 16 19.6638V20.3362C16 20.6983 15.7069 21 15.3362 21Z" fill="#00A6ED"/>
          <path d="M18.6638 21H19.3362C19.7069 21 20 20.6983 20 20.3362V19.6638C20 19.2931 19.6983 19 19.3362 19H18.6638C18.2931 19 18 19.3017 18 19.6638V20.3362C18 20.6983 18.2931 21 18.6638 21Z" fill="#00A6ED"/>
          <path d="M23.3362 21H22.6638C22.2931 21 22 20.6983 22 20.3362V19.6638C22 19.3017 22.2931 19 22.6638 19H23.3362C23.6983 19 24 19.2931 24 19.6638V20.3362C24 20.6983 23.7069 21 23.3362 21Z" fill="#00A6ED"/>
          <path d="M26.6638 21H27.3362C27.7069 21 28 20.6983 28 20.3362V19.6638C28 19.2931 27.6983 19 27.3362 19H26.6638C26.2931 19 26 19.3017 26 19.6638V20.3362C26 20.6983 26.2931 21 26.6638 21Z" fill="#00A6ED"/>
          <path d="M25.33 12.99H24.66C24.29 12.99 24 12.7 24 12.33V11.66C24 11.3 24.29 11 24.66 11H25.33C25.69 11 25.99 11.29 25.99 11.66V12.33C25.99 12.69 25.7 12.99 25.33 12.99Z" fill="#00A6ED"/>
          <path d="M30.01 27.6699C28.26 27.6699 28.26 28.7899 26.5 28.7899C24.75 28.7899 24.75 27.6699 22.99 27.6699C21.24 27.6699 21.24 28.7899 19.49 28.7899C17.74 28.7899 17.74 27.6699 15.99 27.6699C14.24 27.6699 14.24 28.7899 12.49 28.7899C10.74 28.7899 10.74 27.6699 8.99 27.6699C7.24 27.6699 7.24 28.7899 5.5 28.7899C3.75 28.7899 3.75 27.6699 2 27.6699V29.9899H30L30.01 27.6699Z" fill="#00A6ED"/>
          <path d="M26.5962 4C26.8077 4 26.9904 4.18091 26.9904 4.41206H27V6H22L22.6635 4.84422C22.9615 4.3216 23.5096 4 24.0962 4H26.5962Z" fill="#533566"/>
          <path d="M5 16H30V15H5.58C5.26 15 5 15.2626 5 15.5859V16Z" fill="#533566"/>
        </g>
      </g>
      <text id="ITEM_2_HEAD" x="162.0" y="-30.0" font-weight="700" font-size="27" fill="var(--accent-5)" data-bg-id="ITEM_2_TEXT_BG" fill-opacity="1.0" stroke="none" style="font-size: 30px; font-family: Inter, Segoe UI, Kalam, Roboto, Helvetica, Arial, sans-serif; font-weight: 700; letter-spacing:-0.4px;" data-final-font-size="30">
        <tspan x="162.0" dy="29.49px">Superior Mirages</tspan>
      </text>
      <rect id="ITEM_2_HEAD_FRAME" x="162" y="-30" width="472" height="36" fill="none"/>
      <text id="ITEM_2_BODY" x="162.0" y="10.0" font-size="18.5" fill="var(--primary-text)" data-bg-id="ITEM_2_TEXT_BG" style="font-size: 26px; font-family: Inter, Segoe UI, Kalam, Roboto, Helvetica, Arial, sans-serif; font-weight: 400;" data-final-font-size="26">
        <tspan x="162.0" dy="23.00px">Temperature inversions create complex</tspan>
        <tspan x="162.0" dy="29.90px">Fata Morgana images</tspan>
      </text>
      <rect id="ITEM_2_BODY_FRAME" x="162" y="10" width="468" height="60" fill="none"/>
    </g>
    <line x1="840" y1="540" x2="1100" y2="575" stroke="var(--accent-3)" stroke-width="18" stroke-linecap="round" opacity="0.18" filter="url(#svg60a47674-beam-glow)"/>
    <line x1="840" y1="540" x2="1100" y2="575" stroke="var(--accent-3)" stroke-width="4" stroke-linecap="round" opacity="0.72"/>
    <g transform="translate(1100, 575)">
      <path id="ITEM_3_BG" d="M 0 -60 L 610 -60 L 740 15 L 610 90 L 0 90 L 56 15 Z" fill="var(--panel)" fill-opacity="0.95" stroke="var(--accent-3)" stroke-width="3" filter="url(#svg60a47674-shadow)"/>
      <rect id="ITEM_3_TEXT_BG" x="138" y="-42" width="520" height="114" rx="18" fill="var(--panel)" fill-opacity="0.9" stroke="var(--primary-text)" stroke-opacity="0.1" stroke-width="1.5"/>
      <rect x="150" y="-32" width="496" height="94" rx="14" fill="url(#svg60a47674-universal-surface-sheen)" opacity="0.76"/>
      <circle cx="82" cy="15" r="56" fill="url(#svg60a47674-universal-icon-aura)" opacity="0.82"/>
      <circle id="ITEM_3_PAD" cx="82" cy="15" r="40" fill="var(--icon-pad-bg)" stroke="var(--primary-text)" opacity="0.94" fill-opacity="0.9" stroke-width="2"/>
      <circle id="ITEM_3_PAD_INNER" cx="82" cy="15" r="31.20" fill="var(--accent-6)" fill-opacity="0.22"/>
      <circle cx="82" cy="15" r="32" fill="none" stroke="var(--accent-3)" stroke-width="3" stroke-dasharray="6 4"/>
      <g id="ITEM_3_ICON" transform="translate(50, -17)" data-icon-size="64" stroke-dasharray="6 4">
        <g transform="translate(-4.571428571428568,-4.571428571428571) scale(2.2857142857142856)">
          <path d="M18.2692 3.3875C17.2787 1.5375 14.6074 1.5375 13.6269 3.3875L7.35391 15.1875C3.51205 21.7675 8.30437 29.9975 15.9681 29.9975H16.1782C23.7318 29.9975 28.4441 21.8975 24.6723 15.4175L18.2692 3.3875Z" fill="#26C9FC"/>
        </g>
      </g>
      <text id="ITEM_3_HEAD" x="162.0" y="-30.0" font-weight="700" font-size="27" fill="var(--accent-6)" data-bg-id="ITEM_3_TEXT_BG" fill-opacity="1.0" stroke="none" style="font-size: 30px; font-family: Inter, Segoe UI, Kalam, Roboto, Helvetica, Arial, sans-serif; font-weight: 700; letter-spacing:-0.4px;" data-final-font-size="30">
        <tspan x="162.0" dy="29.49px">Light Scattering</tspan>
      </text>
      <rect id="ITEM_3_HEAD_FRAME" x="162" y="-30" width="472" height="36" fill="none"/>
      <text id="ITEM_3_BODY" x="162.0" y="10.0" font-size="18.5" fill="var(--primary-text)" data-bg-id="ITEM_3_TEXT_BG" style="font-size: 26px; font-family: Inter, Segoe UI, Kalam, Roboto, Helvetica, Arial, sans-serif; font-weight: 400;" data-final-font-size="26">
        <tspan x="162.0" dy="23.00px">Moist air diffuses light to increase</tspan>
        <tspan x="162.0" dy="29.90px">perceived brightness</tspan>
      </text>
      <rect id="ITEM_3_BODY_FRAME" x="162" y="10" width="468" height="60" fill="none"/>
    </g>
    <line x1="840" y1="540" x2="1100" y2="725" stroke="var(--accent-4)" stroke-width="18" stroke-linecap="round" opacity="0.18" filter="url(#svg60a47674-beam-glow)"/>
    <line x1="840" y1="540" x2="1100" y2="725" stroke="var(--accent-4)" stroke-width="4" stroke-linecap="round" opacity="0.72"/>
    <g transform="translate(1100, 725)">
      <path id="ITEM_4_BG" d="M 0 -60 L 610 -60 L 740 15 L 610 90 L 0 90 L 56 15 Z" fill="var(--panel)" fill-opacity="0.95" stroke="var(--accent-4)" stroke-width="3" filter="url(#svg60a47674-shadow)"/>
      <rect id="ITEM_4_TEXT_BG" x="138" y="-42" width="520" height="114" rx="18" fill="var(--panel)" fill-opacity="0.9" stroke="var(--primary-text)" stroke-opacity="0.1" stroke-width="1.5"/>
      <rect x="150" y="-32" width="496" height="94" rx="14" fill="url(#svg60a47674-universal-surface-sheen)" opacity="0.76"/>
      <circle cx="82" cy="15" r="56" fill="url(#svg60a47674-universal-icon-aura)" opacity="0.82"/>
      <circle id="ITEM_4_PAD" cx="82" cy="15" r="40" fill="var(--icon-pad-bg)" stroke="var(--primary-text)" opacity="0.94" fill-opacity="0.9" stroke-width="2"/>
      <circle id="ITEM_4_PAD_INNER" cx="82" cy="15" r="31.20" fill="var(--accent-1)" fill-opacity="0.22"/>
      <circle cx="82" cy="15" r="32" fill="none" stroke="var(--accent-4)" stroke-width="3" stroke-dasharray="6 4"/>
      <g id="ITEM_4_ICON" transform="translate(50, -17)" data-icon-size="64" stroke-dasharray="6 4">
        <g transform="translate(-4.2477876106194685,-5.663716814159292) scale(3.0206489675516224)" vector-effect="non-scaling-stroke" stroke-width="2.48" stroke-linecap="round" stroke-linejoin="round" stroke-opacity="1.0">
          <path d="M12 9v13" vector-effect="non-scaling-stroke" fill="none" stroke="#f1f5f9"/>
          <path d="M19 17.17l-5.98 4.485a1.7 1.7 0 0 1 -2.04 0l-5.98 -4.485a2.5 2.5 0 0 1 -1 -2v-11.17a1 1 0 0 1 1 -1h14a1 1 0 0 1 1 1v11.17a2.5 2.5 0 0 1 -1 2z" vector-effect="non-scaling-stroke" fill="none" stroke="#f1f5f9"/>
          <path d="M4.3 3.3l6.655 5.186a1.7 1.7 0 0 0 2.09 0l6.655 -5.186" vector-effect="non-scaling-stroke" fill="none" stroke="#f1f5f9"/>
        </g>
      </g>
      <text id="ITEM_4_HEAD" x="162.0" y="-30.0" font-weight="700" font-size="27" fill="var(--accent-1)" data-bg-id="ITEM_4_TEXT_BG" fill-opacity="1.0" stroke="none" style="font-size: 30px; font-family: Inter, Segoe UI, Kalam, Roboto, Helvetica, Arial, sans-serif; font-weight: 700; letter-spacing:-0.4px;" data-final-font-size="30">
        <tspan x="162.0" dy="29.49px">Refraction Channels</tspan>
      </text>
      <rect id="ITEM_4_HEAD_FRAME" x="162" y="-30" width="472" height="36" fill="none"/>
      <text id="ITEM_4_BODY" x="162.0" y="10.0" font-size="18.5" fill="var(--primary-text)" data-bg-id="ITEM_4_TEXT_BG" style="font-size: 26px; font-family: Inter, Segoe UI, Kalam, Roboto, Helvetica, Arial, sans-serif; font-weight: 400;" data-final-font-size="26">
        <tspan x="162.0" dy="23.00px">Atmospheric layers bend light along</tspan>
        <tspan x="162.0" dy="29.90px">unusual visual paths</tspan>
      </text>
      <rect id="ITEM_4_BODY_FRAME" x="162" y="10" width="468" height="60" fill="none"/>
    </g>
    <line x1="840" y1="540" x2="1100" y2="875" stroke="var(--accent-5)" stroke-width="18" stroke-linecap="round" opacity="0.18" filter="url(#svg60a47674-beam-glow)"/>
    <line x1="840" y1="540" x2="1100" y2="875" stroke="var(--accent-5)" stroke-width="4" stroke-linecap="round" opacity="0.72"/>
    <g transform="translate(1100, 875)">
      <path id="ITEM_5_BG" d="M 0 -60 L 610 -60 L 740 15 L 610 90 L 0 90 L 56 15 Z" fill="var(--panel)" fill-opacity="0.95" stroke="var(--accent-5)" stroke-width="3" filter="url(#svg60a47674-shadow)"/>
      <rect id="ITEM_5_TEXT_BG" x="138" y="-42" width="520" height="114" rx="18" fill="var(--panel)" fill-opacity="0.9" stroke="var(--primary-text)" stroke-opacity="0.1" stroke-width="1.5"/>
      <rect x="150" y="-32" width="496" height="94" rx="14" fill="url(#svg60a47674-universal-surface-sheen)" opacity="0.76"/>
      <circle cx="82" cy="15" r="56" fill="url(#svg60a47674-universal-icon-aura)" opacity="0.82"/>
      <circle id="ITEM_5_PAD" cx="82" cy="15" r="40" fill="var(--icon-pad-bg)" stroke="var(--primary-text)" opacity="0.94" fill-opacity="0.9" stroke-width="2"/>
      <circle id="ITEM_5_PAD_INNER" cx="82" cy="15" r="31.20" fill="var(--accent-2)" fill-opacity="0.22"/>
      <circle cx="82" cy="15" r="32" fill="none" stroke="var(--accent-5)" stroke-width="3" stroke-dasharray="6 4"/>
      <g id="ITEM_5_ICON" transform="translate(50, -17)" data-icon-size="64" stroke-dasharray="6 4">
        <g transform="translate(-4.571428571428571,-4.571428571428571) scale(2.2857142857142856)" vector-effect="non-scaling-stroke" fill="#f1f5f9" fill-opacity="1.0" stroke="none">
          <path fill="#f1f5f9" d="M28 22a3.44 3.44 0 0 1-3.051-2.316a1 1 0 0 0-1.896-.005A3.44 3.44 0 0 1 20 22a3.44 3.44 0 0 1-3.051-2.316A1.01 1.01 0 0 0 16 19a.99.99 0 0 0-.947.679A3.44 3.44 0 0 1 12 22a3.44 3.44 0 0 1-3.051-2.316A1.01 1.01 0 0 0 8 19a.97.97 0 0 0-.947.679A3.44 3.44 0 0 1 4 22H2v2h2a4.93 4.93 0 0 0 4-1.987a5.6 5.6 0 0 0 1 .99a7 7 0 0 0 14 0a5.6 5.6 0 0 0 1-.99A4.93 4.93 0 0 0 28 24h2v-2Zm-12 6a5 5 0 0 1-4.907-4.085A5 5 0 0 0 12 24a4.93 4.93 0 0 0 4-1.987A4.93 4.93 0 0 0 20 24a5 5 0 0 0 .908-.085A5 5 0 0 1 16 28" vector-effect="non-scaling-stroke" stroke="none"/>
          <path fill="#f1f5f9" d="M20.07 7.835A2.01 2.01 0 0 0 18.077 6H17V2h-2v4h-1.082a1.995 1.995 0 0 0-1.986 1.772L10.28 19h2.022l.734-5h5.921l.735 5h2.021ZM13.33 12l.588-4l4.167.063l.578 3.937Z" vector-effect="non-scaling-stroke" stroke="none"/>
        </g>
      </g>
      <text id="ITEM_5_HEAD" x="162.0" y="-30.0" font-weight="700" font-size="27" fill="var(--accent-2)" data-bg-id="ITEM_5_TEXT_BG" fill-opacity="1.0" stroke="none" style="font-size: 30px; font-family: Inter, Segoe UI, Kalam, Roboto, Helvetica, Arial, sans-serif; font-weight: 700; letter-spacing:-0.4px;" data-final-font-size="30">
        <tspan x="162.0" dy="29.49px">Visual Detachment</tspan>
      </text>
      <rect id="ITEM_5_HEAD_FRAME" x="162" y="-30" width="472" height="36" fill="none"/>
      <text id="ITEM_5_BODY" x="162.0" y="10.0" font-size="18.5" fill="var(--primary-text)" data-bg-id="ITEM_5_TEXT_BG" style="font-size: 26px; font-family: Inter, Segoe UI, Kalam, Roboto, Helvetica, Arial, sans-serif; font-weight: 400;" data-final-font-size="26">
        <tspan x="162.0" dy="23.00px">Navigation lights appear floating</tspan>
        <tspan x="162.0" dy="29.90px">in empty space</tspan>
      </text>
      <rect id="ITEM_5_BODY_FRAME" x="162" y="10" width="468" height="60" fill="none"/>
    </g>
  </g>
</svg>
